{"glyphs":{"0":{"ha":856,"x_min":35,"x_max":817,"o":"m 497 3 q 427 -3 463 -4 q 357 6 392 -1 q 212 60 275 21 q 106 171 149 99 q 51 317 68 233 q 39 489 35 400 q 68 665 43 578 q 138 825 93 753 q 247 947 182 897 q 394 1011 311 997 q 542 1007 476 1025 q 658 949 608 989 q 742 851 708 908 q 793 726 775 793 q 814 587 811 658 q 804 449 817 515 q 783 353 796 400 q 756 261 771 307 q 717 172 739 214 q 663 94 694 129 q 591 36 632 60 q 497 3 550 13 m 418 179 q 448 147 429 160 q 490 132 467 133 q 583 176 542 131 q 653 294 625 222 q 692 456 681 367 q 693 628 703 544 q 650 780 683 711 q 557 881 617 849 q 492 890 525 899 q 469 881 482 888 q 444 864 457 874 q 421 844 432 854 q 406 825 410 833 q 378 742 389 794 q 363 629 368 690 q 359 501 358 568 q 367 372 360 433 q 386 260 374 311 q 418 179 399 208 z "},"1":{"ha":575,"x_min":-15,"x_max":519,"o":"m 226 789 q 191 758 214 778 q 142 719 168 739 q 92 685 117 700 q 51 671 68 671 q 19 683 35 671 q -6 714 4 696 q -15 751 -15 732 q 0 785 -15 771 q 49 822 24 806 q 99 860 75 839 q 133 896 117 876 q 168 935 150 915 q 205 970 186 954 q 247 996 224 986 q 296 1006 265 1003 q 359 1008 326 1008 q 422 1003 392 1007 q 469 990 453 999 q 504 956 494 981 q 513 924 511 940 q 514 893 514 908 q 508 651 514 771 q 507 408 503 531 q 512 331 508 379 q 517 231 515 282 q 519 135 519 181 q 511 64 518 89 q 482 21 506 39 q 440 5 468 11 q 381 -4 413 -1 q 319 -7 349 -7 q 272 -4 289 -7 q 238 6 254 -1 q 210 28 221 13 q 194 85 197 44 q 192 171 190 125 q 197 260 193 217 q 203 326 201 303 q 217 558 211 443 q 226 789 224 672 z "},"2":{"ha":696,"x_min":29,"x_max":658,"o":"m 286 104 q 355 106 321 104 q 422 111 389 108 q 468 117 440 113 q 525 123 496 121 q 581 124 554 125 q 622 114 607 122 q 644 90 636 106 q 654 56 653 74 q 648 24 656 39 q 624 0 640 8 q 574 -5 617 -3 q 469 -8 531 -7 q 339 -8 408 -8 q 209 -7 269 -8 q 106 -3 149 -6 q 57 1 63 -1 q 34 24 39 10 q 31 56 29 39 q 40 89 33 72 q 56 118 47 106 q 152 262 99 190 q 250 408 206 333 q 322 565 294 483 q 342 738 350 646 q 335 777 340 756 q 320 817 331 799 q 294 847 310 835 q 256 857 278 858 q 188 830 207 854 q 166 774 169 806 q 167 710 163 742 q 167 661 171 678 q 153 640 164 650 q 130 624 143 629 q 103 621 117 619 q 85 636 90 622 q 62 781 50 713 q 117 901 74 850 q 229 979 161 951 q 374 1003 297 1007 q 443 992 408 1000 q 509 970 478 985 q 567 933 540 956 q 613 879 593 911 q 652 767 646 822 q 647 657 658 711 q 609 551 635 603 q 550 450 583 499 q 425 271 489 358 q 286 104 361 183 z "},"3":{"ha":704,"x_min":33,"x_max":663,"o":"m 526 590 q 553 572 540 582 q 575 549 565 563 q 639 417 615 492 q 660 274 663 343 q 624 140 657 199 q 538 42 590 81 q 422 -15 486 3 q 293 -25 358 -32 q 168 15 228 -18 q 67 110 108 47 q 49 144 58 121 q 37 192 40 168 q 40 235 33 217 q 71 257 46 254 q 105 241 88 258 q 141 199 122 224 q 181 147 160 174 q 224 105 201 121 q 270 90 246 89 q 322 122 294 92 q 366 204 350 153 q 382 309 382 256 q 365 410 382 363 q 307 481 347 457 q 263 494 288 492 q 213 498 238 497 q 167 500 189 499 q 131 510 144 501 q 115 529 119 517 q 111 554 110 542 q 119 578 113 567 q 138 594 126 589 q 159 598 144 597 q 190 599 174 599 q 223 598 207 599 q 249 597 239 597 q 317 617 288 600 q 365 661 346 635 q 394 721 385 688 q 401 790 403 754 q 390 842 400 817 q 360 883 379 867 q 317 907 342 900 q 265 906 293 914 q 216 877 232 894 q 191 840 200 860 q 174 800 182 821 q 150 763 167 779 q 125 753 140 753 q 96 759 110 753 q 74 775 82 765 q 72 793 67 785 q 128 919 82 869 q 239 994 175 969 q 374 1017 303 1018 q 505 990 446 1017 q 601 910 564 963 q 632 779 638 857 q 599 673 628 724 q 526 590 571 622 z "},"4":{"ha":797,"x_min":-3,"x_max":800,"o":"m 633 274 q 635 220 633 253 q 635 153 636 188 q 631 87 635 118 q 618 39 628 56 q 563 4 604 15 q 476 -6 522 -7 q 392 10 431 -4 q 343 54 353 25 q 337 103 338 72 q 338 167 336 133 q 341 231 339 200 q 343 283 343 263 q 270 279 318 282 q 172 276 222 276 q 76 283 121 276 q 15 306 32 289 q -1 340 0 319 q 3 382 -3 361 q 21 423 10 403 q 40 457 32 443 q 63 488 44 463 q 110 553 82 514 q 172 638 138 592 q 243 733 207 685 q 314 828 279 782 q 376 911 349 875 q 424 969 404 947 q 447 993 443 992 q 471 997 456 996 q 504 997 486 997 q 538 996 522 997 q 564 994 554 994 q 610 988 588 992 q 643 956 633 983 q 647 903 647 943 q 645 810 647 864 q 640 692 643 756 q 633 569 636 629 q 631 459 631 510 q 635 379 631 408 q 686 387 661 382 q 738 389 711 392 q 770 377 756 388 q 792 352 785 367 q 799 320 800 338 q 785 289 799 303 q 756 276 776 279 q 713 272 736 272 q 668 272 690 271 q 633 274 646 274 m 147 399 q 183 390 157 392 q 240 386 210 388 q 299 385 271 385 q 342 386 328 386 q 349 469 344 424 q 357 561 354 514 q 359 653 360 608 q 353 733 358 697 q 324 694 343 721 q 282 635 304 668 q 237 567 260 603 q 194 497 214 531 q 162 438 175 464 q 147 399 149 411 z "},"5":{"ha":703,"x_min":50,"x_max":672,"o":"m 285 636 q 372 669 325 660 q 465 669 419 678 q 569 617 526 658 q 637 516 613 575 q 667 386 661 457 q 658 247 672 315 q 608 117 643 178 q 517 15 572 56 q 383 -37 461 -25 q 206 -21 306 -49 q 184 -15 194 -18 q 163 -6 174 -11 q 112 45 135 7 q 78 128 89 83 q 69 214 67 172 q 94 278 72 256 q 128 296 108 292 q 160 279 149 300 q 175 217 172 256 q 186 143 178 179 q 215 81 194 107 q 281 58 235 56 q 354 91 324 61 q 400 157 385 121 q 418 216 413 186 q 426 278 424 246 q 430 334 429 304 q 427 394 431 364 q 415 453 424 425 q 392 504 407 481 q 351 542 368 542 q 319 525 333 542 q 291 485 304 508 q 264 454 278 463 q 208 442 242 442 q 149 444 174 442 q 131 447 139 446 q 114 453 122 449 q 85 475 97 460 q 67 507 74 490 q 57 560 61 522 q 51 647 53 599 q 51 749 50 696 q 57 849 53 803 q 67 930 61 896 q 83 975 74 964 q 116 996 97 990 q 154 1004 135 1001 q 197 1007 165 1006 q 272 1009 229 1008 q 364 1010 315 1010 q 454 1010 413 1011 q 526 1008 496 1010 q 563 1004 556 1007 q 587 982 579 996 q 594 952 594 968 q 585 922 594 936 q 560 901 576 908 q 509 898 543 894 q 436 907 475 901 q 360 917 397 913 q 300 918 322 922 q 292 871 294 910 q 288 785 289 832 q 285 694 286 738 q 285 636 285 651 z "},"6":{"ha":746,"x_min":28,"x_max":721,"o":"m 303 618 q 401 666 347 657 q 511 660 454 675 q 592 626 553 649 q 656 567 631 603 q 707 437 693 511 q 710 288 721 363 q 666 147 700 213 q 575 42 632 81 q 506 8 543 19 q 432 -10 469 -4 q 265 6 349 -21 q 126 96 182 33 q 49 240 69 161 q 35 404 28 319 q 72 575 42 489 q 150 738 103 661 q 257 878 197 815 q 381 983 317 942 q 408 999 389 989 q 436 1011 426 1010 q 455 1006 444 1011 q 476 994 465 1001 q 494 978 486 986 q 507 963 503 969 q 506 911 525 933 q 482 892 494 900 q 457 875 469 883 q 353 763 393 831 q 303 618 313 694 m 339 154 q 367 136 350 143 q 399 132 383 129 q 442 161 425 138 q 467 219 458 185 q 478 293 476 253 q 477 372 481 333 q 467 442 474 410 q 450 493 460 475 q 433 521 443 507 q 406 539 422 535 q 355 525 375 546 q 322 467 335 504 q 306 383 310 431 q 304 290 301 336 q 316 208 307 244 q 339 154 325 171 z "},"7":{"ha":639,"x_min":19,"x_max":638,"o":"m 386 753 q 307 740 358 749 q 201 728 256 732 q 101 729 147 724 q 38 760 54 735 q 27 791 31 769 q 22 837 24 813 q 19 884 19 861 q 19 919 19 907 q 23 952 21 935 q 36 981 25 969 q 61 994 47 992 q 89 996 75 996 q 276 995 183 999 q 464 994 369 992 q 509 997 488 996 q 554 999 531 999 q 584 997 569 999 q 613 989 599 996 q 632 966 626 981 q 638 935 638 951 q 633 901 638 918 q 625 872 629 885 q 581 763 606 817 q 538 654 557 710 q 469 431 497 543 q 426 201 440 319 q 422 157 424 183 q 415 103 419 131 q 402 53 410 76 q 381 18 394 31 q 333 -1 367 6 q 264 -7 300 -7 q 197 1 228 -7 q 156 25 165 8 q 147 49 149 35 q 147 80 146 64 q 151 111 149 96 q 156 138 153 126 q 250 453 186 301 q 386 753 314 604 z "},"8":{"ha":760,"x_min":28,"x_max":719,"o":"m 567 539 q 645 453 607 499 q 701 353 683 407 q 715 243 719 299 q 687 138 710 188 q 624 49 664 89 q 532 -11 585 10 q 451 -32 493 -26 q 367 -36 408 -37 q 150 22 229 -32 q 49 154 71 75 q 63 327 28 233 q 189 507 99 421 q 100 624 131 560 q 76 768 69 689 q 125 899 82 846 q 231 980 168 951 q 366 1014 293 1008 q 505 1003 439 1019 q 621 949 571 988 q 688 852 671 911 q 678 715 704 793 q 567 539 653 636 m 511 603 q 542 658 526 626 q 566 725 557 690 q 576 794 575 760 q 565 856 578 828 q 539 887 557 874 q 498 907 521 900 q 451 916 475 914 q 410 915 428 918 q 360 886 374 908 q 348 835 347 864 q 360 778 349 807 q 386 728 371 749 q 445 662 413 692 q 511 603 478 632 m 261 457 q 228 422 244 446 q 200 369 213 397 q 179 312 188 340 q 169 263 171 283 q 194 149 164 192 q 269 90 225 107 q 362 81 314 72 q 438 119 410 89 q 463 200 465 149 q 404 322 460 251 q 336 394 372 361 q 261 457 300 426 z "},"9":{"ha":746,"x_min":26,"x_max":713,"o":"m 444 382 q 345 334 397 343 q 235 340 293 325 q 115 409 161 358 q 47 526 68 460 q 31 668 26 593 q 63 810 35 743 q 142 929 90 878 q 267 1000 193 981 q 362 1013 313 1013 q 458 1001 411 1013 q 547 965 504 989 q 621 904 589 940 q 695 761 678 839 q 707 599 713 683 q 672 422 700 508 q 599 259 644 336 q 490 117 553 182 q 349 6 426 53 q 326 -7 338 -1 q 301 -10 315 -12 q 285 -3 294 -8 q 267 10 276 3 q 251 24 258 17 q 239 38 243 32 q 242 90 221 64 q 265 109 251 101 q 289 125 278 117 q 393 238 353 169 q 444 382 433 306 m 342 461 q 392 478 371 454 q 426 543 414 501 q 444 636 439 585 q 443 735 449 688 q 422 818 438 782 q 381 865 407 854 q 321 858 344 881 q 283 793 297 836 q 267 696 269 750 q 272 592 265 642 q 297 505 279 542 q 342 461 314 468 z "},"\u0000":{"ha":0,"x_min":0,"x_max":0,"o":""},"\r":{"ha":417,"x_min":0,"x_max":0,"o":""}," ":{"ha":417,"x_min":0,"x_max":0,"o":""},"!":{"ha":411,"x_min":46,"x_max":360,"o":"m 67 636 q 58 672 60 649 q 56 710 57 694 q 49 778 53 738 q 47 860 46 818 q 59 937 49 901 q 97 990 69 972 q 141 1007 114 1001 q 197 1013 168 1013 q 254 1009 226 1014 q 299 996 282 1004 q 339 957 324 983 q 355 885 350 938 q 359 767 360 833 q 352 626 358 700 q 335 486 346 551 q 310 374 325 421 q 279 313 296 326 q 206 293 249 288 q 136 325 164 299 q 101 386 114 346 q 81 472 89 426 q 71 563 74 518 q 67 636 68 607 m 253 -22 q 173 -26 207 -35 q 118 3 139 -18 q 89 53 97 24 q 86 113 81 83 q 111 166 92 142 q 165 201 131 190 q 204 207 182 207 q 249 203 226 207 q 292 190 272 199 q 324 168 313 181 q 341 133 336 154 q 345 90 346 113 q 338 46 344 67 q 319 13 332 25 q 289 -10 307 -3 q 253 -22 271 -17 z "},"\"":{"ha":614,"x_min":32,"x_max":582,"o":"m 226 679 q 187 658 213 663 q 142 656 161 654 q 115 660 128 657 q 92 672 103 664 q 60 728 74 686 q 39 818 46 769 q 35 911 32 867 q 53 975 38 956 q 81 994 63 988 q 122 1003 100 1001 q 164 1004 143 1006 q 200 1000 185 1003 q 232 984 218 996 q 251 954 246 972 q 258 897 257 936 q 258 814 260 857 q 248 733 256 771 q 226 679 240 694 m 549 672 q 509 652 533 656 q 464 650 485 649 q 414 665 433 650 q 382 722 396 679 q 362 812 368 764 q 358 904 356 860 q 375 968 360 949 q 403 988 385 981 q 444 998 422 996 q 486 999 465 1000 q 522 994 507 999 q 553 978 539 990 q 574 949 568 967 q 581 891 579 931 q 580 808 582 851 q 570 725 578 764 q 549 672 563 686 z "},"«":{"ha":614,"x_min":32,"x_max":582,"o":"m 226 679 q 187 658 213 663 q 142 656 161 654 q 115 660 128 657 q 92 672 103 664 q 60 728 74 686 q 39 818 46 769 q 35 911 32 867 q 53 975 38 956 q 81 994 63 988 q 122 1003 100 1001 q 164 1004 143 1006 q 200 1000 185 1003 q 232 984 218 996 q 251 954 246 972 q 258 897 257 936 q 258 814 260 857 q 248 733 256 771 q 226 679 240 694 m 549 672 q 509 652 533 656 q 464 650 485 649 q 414 665 433 650 q 382 722 396 679 q 362 812 368 764 q 358 904 356 860 q 375 968 360 949 q 403 988 385 981 q 444 998 422 996 q 486 999 465 1000 q 522 994 507 999 q 553 978 539 990 q 574 949 568 967 q 581 891 579 931 q 580 808 582 851 q 570 725 578 764 q 549 672 563 686 z "},"»":{"ha":614,"x_min":32,"x_max":582,"o":"m 226 679 q 187 658 213 663 q 142 656 161 654 q 115 660 128 657 q 92 672 103 664 q 60 728 74 686 q 39 818 46 769 q 35 911 32 867 q 53 975 38 956 q 81 994 63 988 q 122 1003 100 1001 q 164 1004 143 1006 q 200 1000 185 1003 q 232 984 218 996 q 251 954 246 972 q 258 897 257 936 q 258 814 260 857 q 248 733 256 771 q 226 679 240 694 m 549 672 q 509 652 533 656 q 464 650 485 649 q 414 665 433 650 q 382 722 396 679 q 362 812 368 764 q 358 904 356 860 q 375 968 360 949 q 403 988 385 981 q 444 998 422 996 q 486 999 465 1000 q 522 994 507 999 q 553 978 539 990 q 574 949 568 967 q 581 891 579 931 q 580 808 582 851 q 570 725 578 764 q 549 672 563 686 z "},"„":{"ha":614,"x_min":32,"x_max":582,"o":"m 226 679 q 187 658 213 663 q 142 656 161 654 q 115 660 128 657 q 92 672 103 664 q 60 728 74 686 q 39 818 46 769 q 35 911 32 867 q 53 975 38 956 q 81 994 63 988 q 122 1003 100 1001 q 164 1004 143 1006 q 200 1000 185 1003 q 232 984 218 996 q 251 954 246 972 q 258 897 257 936 q 258 814 260 857 q 248 733 256 771 q 226 679 240 694 m 549 672 q 509 652 533 656 q 464 650 485 649 q 414 665 433 650 q 382 722 396 679 q 362 812 368 764 q 358 904 356 860 q 375 968 360 949 q 403 988 385 981 q 444 998 422 996 q 486 999 465 1000 q 522 994 507 999 q 553 978 539 990 q 574 949 568 967 q 581 891 579 931 q 580 808 582 851 q 570 725 578 764 q 549 672 563 686 z "},"‟":{"ha":614,"x_min":32,"x_max":582,"o":"m 226 679 q 187 658 213 663 q 142 656 161 654 q 115 660 128 657 q 92 672 103 664 q 60 728 74 686 q 39 818 46 769 q 35 911 32 867 q 53 975 38 956 q 81 994 63 988 q 122 1003 100 1001 q 164 1004 143 1006 q 200 1000 185 1003 q 232 984 218 996 q 251 954 246 972 q 258 897 257 936 q 258 814 260 857 q 248 733 256 771 q 226 679 240 694 m 549 672 q 509 652 533 656 q 464 650 485 649 q 414 665 433 650 q 382 722 396 679 q 362 812 368 764 q 358 904 356 860 q 375 968 360 949 q 403 988 385 981 q 444 998 422 996 q 486 999 465 1000 q 522 994 507 999 q 553 978 539 990 q 574 949 568 967 q 581 891 579 931 q 580 808 582 851 q 570 725 578 764 q 549 672 563 686 z "},"#":{"ha":840,"x_min":26,"x_max":811,"o":"m 632 297 q 622 239 625 271 q 616 174 619 207 q 608 111 613 142 q 593 57 603 81 q 565 31 586 39 q 519 24 544 24 q 471 31 494 24 q 435 47 447 38 q 411 96 415 63 q 411 167 407 129 q 424 240 415 204 q 436 299 432 276 l 324 299 q 316 243 319 278 q 308 172 313 208 q 297 104 303 136 q 285 58 292 72 q 256 35 276 42 q 210 28 235 28 q 163 35 186 29 q 128 51 140 42 q 104 99 108 67 q 104 169 100 132 q 117 241 108 206 q 129 297 125 276 q 94 298 113 297 q 61 304 76 299 q 39 322 47 310 q 28 349 31 335 q 33 377 26 364 q 54 397 39 390 q 74 402 61 400 q 102 405 88 404 q 131 406 117 406 q 153 406 144 406 q 165 452 160 429 q 176 499 169 475 q 137 501 160 499 q 96 510 114 503 q 68 532 78 517 q 68 575 58 547 q 90 597 74 590 q 128 606 107 604 q 169 608 149 608 q 203 608 190 608 q 215 667 207 631 q 235 740 224 703 q 260 810 246 778 q 292 856 275 842 q 322 868 304 867 q 356 868 340 869 q 433 836 414 864 q 450 769 453 808 q 432 685 447 729 q 406 607 417 642 l 510 607 q 522 665 514 629 q 542 737 531 700 q 567 806 553 774 q 599 851 582 838 q 630 864 613 863 q 663 864 647 865 q 740 833 721 860 q 758 767 760 806 q 740 685 756 728 q 714 607 725 642 q 746 608 729 607 q 776 608 763 610 q 799 597 790 606 q 810 568 808 589 q 800 524 811 539 q 770 504 789 510 q 728 499 751 499 q 682 499 704 499 q 669 452 675 475 q 658 406 664 429 q 694 407 675 406 q 731 406 714 408 q 760 395 749 404 q 772 365 772 386 q 760 320 774 335 q 726 301 747 306 q 680 297 706 296 q 632 297 654 297 m 461 406 q 472 453 467 429 q 485 500 478 476 l 374 500 q 362 453 367 476 q 350 406 357 429 l 461 406 z "},"$":{"ha":690,"x_min":39,"x_max":653,"o":"m 406 18 q 403 -26 403 3 q 403 -87 404 -56 q 399 -147 403 -119 q 388 -182 396 -174 q 356 -192 376 -193 q 321 -183 335 -192 q 302 -147 307 -175 q 297 -87 297 -119 q 299 -24 297 -56 q 303 22 301 7 q 228 42 272 28 q 144 80 185 57 q 73 133 103 103 q 40 201 43 164 q 44 226 39 214 q 58 247 49 239 q 78 257 67 254 q 104 254 90 260 q 147 217 125 246 q 199 160 169 189 q 267 111 228 132 q 364 96 307 90 q 405 109 382 99 q 433 139 428 119 q 422 199 440 168 q 371 262 404 229 q 294 330 338 294 q 208 404 251 365 q 128 486 165 443 q 68 578 90 529 q 45 680 46 626 q 74 794 44 733 q 160 899 103 854 q 285 954 218 943 q 284 988 285 965 q 283 1033 283 1010 q 285 1078 283 1057 q 290 1106 286 1099 q 313 1119 296 1115 q 348 1123 329 1124 q 383 1117 367 1122 q 404 1103 400 1113 q 406 1075 408 1096 q 401 1031 404 1054 q 394 985 397 1007 q 389 953 390 963 q 473 931 433 946 q 543 892 513 917 q 594 831 574 867 q 619 747 614 794 q 626 714 621 733 q 633 674 631 694 q 635 637 636 654 q 625 608 635 619 q 599 593 614 597 q 568 592 583 589 q 540 605 553 596 q 522 629 526 614 q 514 673 515 651 q 510 716 513 694 q 501 758 508 738 q 476 799 494 779 q 452 817 467 808 q 422 831 438 826 q 390 835 406 836 q 361 825 374 833 q 341 799 347 815 q 334 763 335 782 q 337 726 333 744 q 346 693 340 707 q 400 608 364 647 q 476 532 436 569 q 556 456 517 494 q 619 375 594 418 q 649 281 644 332 q 625 167 653 231 q 535 63 594 99 q 406 18 476 28 z "},"%":{"ha":965,"x_min":28,"x_max":938,"o":"m 276 -7 q 250 -12 265 -12 q 219 -8 235 -12 q 190 3 204 -4 q 168 18 176 10 q 150 53 151 33 q 163 99 149 68 q 199 166 178 131 q 240 233 219 201 q 269 281 260 265 q 363 429 315 356 q 453 579 410 503 q 526 708 489 644 q 601 836 564 771 q 640 918 624 875 q 681 999 657 961 q 694 1017 688 1008 q 713 1028 701 1025 q 742 1025 722 1031 q 771 1017 761 1019 q 814 995 793 1010 q 833 954 835 981 q 822 922 833 943 q 795 880 810 901 q 766 838 781 858 q 744 807 751 818 q 610 583 671 697 q 482 356 549 469 q 434 280 458 317 q 389 203 410 243 q 349 121 367 163 q 313 39 332 79 q 298 13 306 26 q 276 -7 290 0 m 304 501 q 235 492 272 492 q 162 501 197 492 q 97 531 126 510 q 53 583 68 551 q 33 659 38 615 q 32 748 28 703 q 50 835 36 793 q 85 906 64 876 q 141 956 108 936 q 210 982 174 975 q 285 983 247 989 q 357 958 324 978 q 417 897 394 936 q 447 812 439 858 q 450 716 456 765 q 426 623 444 667 q 376 547 407 579 q 304 501 346 514 m 283 588 q 326 603 307 583 q 356 656 344 624 q 372 726 368 688 q 371 797 376 764 q 350 853 365 831 q 307 878 335 876 q 271 858 288 879 q 244 807 254 838 q 229 740 233 776 q 229 670 225 703 q 247 615 233 638 q 283 588 260 592 m 817 15 q 752 -3 789 1 q 678 -1 715 -7 q 609 19 642 4 q 556 58 576 33 q 520 140 529 89 q 516 244 511 190 q 538 348 521 299 q 582 426 554 397 q 638 468 606 453 q 706 488 671 483 q 776 487 740 493 q 842 463 811 481 q 898 406 876 442 q 928 325 919 369 q 935 233 938 281 q 917 144 932 186 q 878 67 903 101 q 817 15 853 32 m 768 92 q 814 108 794 86 q 844 166 833 131 q 857 243 856 201 q 851 319 858 285 q 825 372 843 353 q 779 381 807 390 q 734 327 751 371 q 713 233 717 283 q 722 140 710 182 q 768 92 735 97 z "},"&":{"ha":928,"x_min":32,"x_max":907,"o":"m 647 96 q 484 9 564 33 q 335 -10 404 -15 q 208 26 265 -4 q 111 103 151 57 q 51 208 71 150 q 37 327 32 267 q 74 447 42 388 q 172 553 107 506 q 103 656 118 597 q 103 774 88 715 q 162 886 119 833 q 265 972 204 939 q 399 1013 325 1006 q 553 990 474 1021 q 615 955 590 975 q 653 908 639 935 q 676 851 668 882 q 686 782 683 819 q 690 728 689 758 q 674 678 690 697 q 631 663 657 658 q 594 692 604 668 q 588 742 586 713 q 587 800 589 771 q 573 854 585 829 q 526 892 561 879 q 492 896 511 897 q 452 889 472 894 q 415 874 432 883 q 388 851 397 864 q 367 807 375 836 q 358 747 358 778 q 367 690 357 715 q 400 657 376 664 q 432 654 415 653 q 464 653 449 656 q 488 638 479 650 q 500 611 496 626 q 504 580 504 596 q 504 551 504 564 q 497 519 503 536 q 476 496 492 501 q 452 493 465 492 q 426 495 439 494 q 398 493 413 496 q 369 479 383 490 q 340 433 350 463 q 328 369 331 403 q 331 302 326 335 q 342 247 335 269 q 386 172 357 200 q 449 138 415 144 q 517 144 483 131 q 576 194 551 158 q 612 287 601 229 q 610 425 622 344 q 588 422 600 424 q 565 419 576 419 q 542 422 553 418 q 525 433 532 425 q 514 469 515 446 q 521 506 513 492 q 542 521 528 517 q 574 526 557 525 q 608 526 592 528 q 636 525 625 525 q 691 527 657 525 q 760 531 725 529 q 827 531 796 532 q 874 524 858 531 q 899 501 890 517 q 906 468 907 485 q 894 438 904 451 q 863 422 883 424 q 818 423 840 419 q 774 422 796 426 q 799 326 792 378 q 822 226 807 274 q 835 193 826 214 q 852 149 843 172 q 867 106 861 126 q 874 76 874 86 q 860 56 874 69 q 826 30 847 43 q 779 9 806 17 q 728 6 753 1 q 681 31 703 11 q 647 96 660 51 z "},"'":{"ha":292,"x_min":33,"x_max":260,"o":"m 226 682 q 187 660 211 664 q 142 658 163 657 q 92 674 111 658 q 60 729 74 688 q 40 819 46 771 q 35 913 33 868 q 53 976 38 957 q 81 997 63 989 q 122 1006 100 1004 q 165 1008 144 1008 q 200 1003 186 1007 q 231 987 217 999 q 251 957 246 975 q 258 899 257 938 q 258 817 260 860 q 248 735 256 774 q 226 682 240 697 z "},"‚":{"ha":292,"x_min":33,"x_max":260,"o":"m 226 682 q 187 660 211 664 q 142 658 163 657 q 92 674 111 658 q 60 729 74 688 q 40 819 46 771 q 35 913 33 868 q 53 976 38 957 q 81 997 63 989 q 122 1006 100 1004 q 165 1008 144 1008 q 200 1003 186 1007 q 231 987 217 999 q 251 957 246 975 q 258 899 257 938 q 258 817 260 860 q 248 735 256 774 q 226 682 240 697 z "},"‛":{"ha":292,"x_min":33,"x_max":260,"o":"m 226 682 q 187 660 211 664 q 142 658 163 657 q 92 674 111 658 q 60 729 74 688 q 40 819 46 771 q 35 913 33 868 q 53 976 38 957 q 81 997 63 989 q 122 1006 100 1004 q 165 1008 144 1008 q 200 1003 186 1007 q 231 987 217 999 q 251 957 246 975 q 258 899 257 938 q 258 817 260 860 q 248 735 256 774 q 226 682 240 697 z "},"‹":{"ha":292,"x_min":33,"x_max":260,"o":"m 226 682 q 187 660 211 664 q 142 658 163 657 q 92 674 111 658 q 60 729 74 688 q 40 819 46 771 q 35 913 33 868 q 53 976 38 957 q 81 997 63 989 q 122 1006 100 1004 q 165 1008 144 1008 q 200 1003 186 1007 q 231 987 217 999 q 251 957 246 975 q 258 899 257 938 q 258 817 260 860 q 248 735 256 774 q 226 682 240 697 z "},"›":{"ha":292,"x_min":33,"x_max":260,"o":"m 226 682 q 187 660 211 664 q 142 658 163 657 q 92 674 111 658 q 60 729 74 688 q 40 819 46 771 q 35 913 33 868 q 53 976 38 957 q 81 997 63 989 q 122 1006 100 1004 q 165 1008 144 1008 q 200 1003 186 1007 q 231 987 217 999 q 251 957 246 975 q 258 899 257 938 q 258 817 260 860 q 248 735 256 774 q 226 682 240 697 z "},"(":{"ha":461,"x_min":36,"x_max":482,"o":"m 419 -36 q 381 -43 403 -46 q 343 -35 360 -40 q 197 42 257 -10 q 101 163 138 93 q 51 313 65 232 q 42 476 36 393 q 70 638 47 558 q 132 782 93 717 q 213 888 165 840 q 314 975 261 936 q 350 1001 331 988 q 389 1024 369 1015 q 424 1029 406 1032 q 457 1017 443 1026 q 476 990 471 1007 q 474 954 482 974 q 445 917 464 933 q 411 886 426 901 q 292 714 329 807 q 250 508 254 621 q 252 399 249 457 q 268 285 256 342 q 304 178 281 229 q 365 89 328 128 q 394 65 374 79 q 428 33 414 50 q 444 -3 443 15 q 419 -36 446 -21 z "},")":{"ha":453,"x_min":-18,"x_max":414,"o":"m 82 -50 q 50 -50 65 -54 q 24 -36 35 -46 q 8 -11 13 -26 q 10 21 3 4 q 35 59 17 42 q 69 92 54 76 q 177 271 144 171 q 207 478 210 371 q 199 585 206 528 q 175 699 192 643 q 133 804 158 754 q 68 890 107 854 q 36 913 53 904 q 4 936 19 922 q -17 974 -18 957 q -3 1003 -17 992 q 34 1017 11 1014 q 82 1015 57 1021 q 230 949 168 996 q 332 835 292 901 q 392 691 372 769 q 413 531 413 613 q 397 369 414 449 q 346 222 379 289 q 269 106 314 160 q 171 8 224 53 q 152 -6 164 3 q 128 -24 140 -15 q 103 -41 115 -33 q 82 -50 90 -49 z "},"*":{"ha":540,"x_min":32,"x_max":508,"o":"m 328 678 q 331 640 328 664 q 333 591 333 615 q 327 547 333 567 q 304 522 321 526 q 240 522 260 510 q 215 560 221 535 q 210 619 208 586 q 213 678 213 651 q 185 662 203 672 q 149 641 168 651 q 112 623 129 631 q 85 615 94 615 q 72 619 78 615 q 63 626 67 622 q 32 681 32 658 q 50 721 32 704 q 95 750 68 738 q 146 774 122 763 q 101 795 125 785 q 60 819 76 806 q 39 852 43 833 q 54 899 35 871 q 69 919 61 908 q 90 933 78 931 q 115 926 99 935 q 150 906 132 918 q 185 883 168 894 q 213 868 203 872 q 210 899 213 878 q 206 942 208 919 q 205 984 204 965 q 210 1008 206 1003 q 224 1018 215 1015 q 240 1022 233 1021 q 301 1018 283 1028 q 325 987 319 1008 q 328 934 331 965 q 326 867 325 903 q 352 883 336 872 q 385 903 368 893 q 417 922 401 914 q 440 932 432 931 q 464 925 451 935 q 487 901 476 915 q 503 870 497 886 q 506 846 508 854 q 488 826 503 836 q 456 806 474 815 q 421 788 439 796 q 394 774 403 779 q 423 760 404 768 q 460 742 442 751 q 492 720 478 732 q 507 694 506 708 q 504 679 507 689 q 497 659 501 669 q 488 640 493 649 q 478 626 482 631 q 445 618 465 614 q 403 633 425 622 q 360 658 381 644 q 328 678 340 671 z "},"+":{"ha":638,"x_min":22,"x_max":615,"o":"m 400 140 q 390 110 400 119 q 366 97 381 100 q 335 94 351 93 q 303 97 318 96 q 253 123 268 99 q 235 179 239 147 q 235 246 232 211 q 238 306 238 281 q 195 303 222 306 q 140 301 168 301 q 85 305 111 301 q 49 317 60 308 q 31 347 35 329 q 24 378 26 361 q 24 413 22 396 q 34 442 26 429 q 58 461 42 456 q 93 465 68 464 q 146 467 118 467 q 200 467 174 468 q 239 467 226 467 q 235 531 239 494 q 233 600 231 567 q 251 658 236 633 q 306 686 267 682 q 376 672 356 692 q 402 617 397 651 q 403 542 407 583 q 400 467 400 501 l 572 467 q 598 463 589 467 q 610 450 607 458 q 613 431 613 442 q 614 407 614 419 q 615 372 615 390 q 608 338 615 353 q 573 313 600 319 q 513 303 546 306 q 449 303 481 301 q 400 304 417 304 l 400 140 z "},",":{"ha":319,"x_min":22,"x_max":301,"o":"m 179 -17 q 112 -35 142 -37 q 62 -17 82 -33 q 32 28 42 0 q 25 84 22 56 q 44 139 28 113 q 93 181 61 165 q 164 192 125 196 q 232 171 203 189 q 290 99 278 143 q 292 9 301 56 q 256 -82 282 -37 q 199 -153 229 -126 q 181 -165 194 -156 q 153 -183 168 -175 q 127 -191 139 -190 q 115 -176 115 -192 q 126 -157 115 -172 q 149 -120 136 -142 q 171 -72 161 -99 q 179 -17 181 -44 z "},"-":{"ha":638,"x_min":24,"x_max":615,"o":"m 238 306 q 195 303 222 306 q 139 301 168 301 q 85 305 110 301 q 49 317 60 308 q 30 348 36 326 q 24 392 24 369 q 32 435 24 415 q 58 461 40 454 q 101 467 71 465 q 166 468 131 468 q 234 467 201 468 q 283 467 267 467 l 572 467 q 589 465 581 467 q 604 458 597 464 q 613 435 610 453 q 615 397 615 418 q 613 358 615 376 q 606 332 610 339 q 573 315 599 321 q 510 306 547 308 q 432 303 474 303 q 351 303 390 303 q 282 305 313 304 q 238 306 251 306 z "},".":{"ha":314,"x_min":21,"x_max":290,"o":"m 224 19 q 148 7 188 3 q 76 35 108 11 q 29 103 38 64 q 36 178 21 143 q 86 236 51 213 q 168 258 121 260 q 252 226 224 257 q 285 153 281 194 q 274 74 290 113 q 224 19 258 36 z "},"/":{"ha":419,"x_min":-12,"x_max":442,"o":"m 111 -54 q 67 -60 90 -62 q 26 -48 44 -58 q -2 -19 8 -37 q -8 26 -12 0 q 6 78 -4 54 q 24 129 17 103 q 93 349 57 240 q 161 568 129 457 q 203 716 182 643 q 247 864 225 789 q 264 947 258 904 q 282 1029 269 989 q 290 1050 285 1040 q 306 1065 294 1060 q 333 1071 315 1069 q 371 1069 351 1072 q 408 1060 390 1067 q 432 1044 425 1054 q 441 1021 440 1033 q 439 997 442 1008 q 415 915 431 960 q 383 823 400 869 q 348 730 365 776 q 319 642 331 683 q 276 481 297 561 q 231 321 256 400 q 188 167 206 242 q 156 10 171 92 q 149 -14 153 -1 q 138 -36 146 -26 q 111 -54 129 -47 z "},":":{"ha":347,"x_min":31,"x_max":315,"o":"m 247 483 q 172 471 211 467 q 100 499 132 475 q 53 567 61 528 q 60 642 44 607 q 110 701 75 678 q 192 724 144 725 q 274 691 246 722 q 309 619 303 660 q 299 539 315 578 q 247 483 283 500 m 233 19 q 158 7 197 3 q 86 35 118 11 q 39 103 47 64 q 46 178 31 143 q 96 236 61 213 q 178 258 131 260 q 262 226 233 257 q 295 153 290 194 q 284 74 300 113 q 233 19 268 36 z "},";":{"ha":350,"x_min":31,"x_max":321,"o":"m 253 483 q 177 471 217 467 q 106 499 138 475 q 58 567 67 528 q 66 642 50 607 q 117 701 82 678 q 197 724 151 725 q 280 691 251 722 q 315 619 308 660 q 304 539 321 578 q 253 483 288 500 m 188 -17 q 120 -35 150 -37 q 70 -17 90 -33 q 40 28 50 0 q 33 84 31 56 q 53 139 36 113 q 101 181 69 165 q 172 192 133 196 q 240 171 211 189 q 298 99 286 143 q 300 9 310 56 q 264 -82 290 -37 q 207 -153 238 -126 q 190 -165 203 -156 q 162 -183 176 -175 q 135 -191 147 -190 q 124 -176 124 -192 q 134 -157 124 -172 q 157 -120 144 -142 q 179 -72 169 -99 q 188 -17 189 -44 z "},"<":{"ha":546,"x_min":15,"x_max":517,"o":"m 238 347 q 294 324 254 343 q 378 283 335 306 q 458 237 422 260 q 501 201 494 214 q 507 174 508 189 q 501 146 506 160 q 488 119 496 132 q 471 96 479 106 q 447 74 461 83 q 418 63 433 65 q 378 74 404 61 q 323 103 351 86 q 269 138 294 121 q 231 164 243 156 q 136 220 185 192 q 51 289 88 249 q 24 331 32 308 q 31 381 15 354 q 80 428 43 401 q 161 481 117 454 q 249 531 206 507 q 317 572 292 556 q 340 590 325 578 q 370 616 354 603 q 399 640 386 629 q 418 653 413 650 q 452 652 433 660 q 486 630 471 644 q 509 597 501 615 q 511 564 517 579 q 484 538 506 551 q 432 508 463 524 q 367 475 401 492 q 300 440 332 458 q 244 403 268 422 q 213 367 221 385 q 224 356 217 360 q 238 347 231 353 z "},"=":{"ha":658,"x_min":32,"x_max":625,"o":"m 247 467 q 205 465 232 467 q 149 464 178 464 q 94 467 119 464 q 58 478 69 469 q 39 508 46 488 q 33 552 32 529 q 42 595 33 575 q 68 622 50 615 q 110 628 81 626 q 176 629 140 629 q 244 628 211 629 q 293 628 276 628 l 582 628 q 599 627 590 628 q 614 619 607 626 q 622 596 619 614 q 625 558 625 578 q 622 519 625 538 q 615 493 619 500 q 583 476 608 482 q 520 467 557 469 q 442 463 483 464 q 361 464 400 463 q 292 466 322 465 q 247 467 261 467 m 251 210 q 206 207 235 210 q 148 204 178 204 q 92 208 118 204 q 56 224 67 213 q 38 256 44 235 q 33 299 32 278 q 42 340 33 321 q 68 365 50 358 q 110 371 81 369 q 176 372 140 372 q 244 372 211 372 q 293 371 276 371 l 582 371 q 599 370 590 371 q 614 363 607 369 q 622 339 619 357 q 625 301 625 321 q 622 262 625 281 q 615 236 619 243 q 583 219 608 225 q 521 210 557 213 q 443 207 485 207 q 363 208 401 207 q 294 209 325 208 q 251 210 264 210 z "},">":{"ha":546,"x_min":31,"x_max":525,"o":"m 332 367 q 308 399 329 382 q 257 435 288 417 q 190 470 226 453 q 122 503 154 488 q 67 533 90 519 q 39 557 44 547 q 35 589 31 571 q 53 623 40 607 q 82 649 65 639 q 114 657 99 658 q 137 647 122 656 q 166 625 151 638 q 194 600 181 613 q 217 582 208 588 q 285 538 243 563 q 371 489 328 514 q 451 439 414 464 q 507 393 489 414 q 525 349 525 372 q 516 316 525 332 q 493 286 507 300 q 464 260 479 272 q 436 240 449 249 q 400 215 425 232 q 344 178 375 199 q 278 135 313 157 q 212 97 243 114 q 156 71 181 81 q 119 64 131 61 q 94 78 107 67 q 69 103 81 89 q 50 135 58 118 q 40 164 42 151 q 50 210 36 190 q 74 229 54 217 q 119 257 93 242 q 176 288 146 272 q 233 315 206 303 q 280 336 260 328 q 307 346 300 344 q 319 356 313 353 q 332 367 326 360 z "},"?":{"ha":664,"x_min":42,"x_max":643,"o":"m 304 396 q 308 374 306 389 q 312 344 310 360 q 315 314 314 328 q 315 294 317 300 q 282 255 313 271 q 215 236 251 239 q 145 246 178 233 q 106 292 113 258 q 101 334 103 307 q 103 389 100 361 q 113 442 106 417 q 132 478 119 467 q 159 490 143 488 q 192 493 175 493 q 227 493 210 493 q 260 497 244 493 q 331 557 307 511 q 358 658 354 603 q 351 767 363 713 q 314 856 339 822 q 281 885 300 874 q 240 900 261 897 q 199 895 219 903 q 163 869 178 888 q 140 815 143 846 q 139 754 136 785 q 145 698 142 724 q 144 658 149 672 q 130 640 140 649 q 107 628 119 632 q 83 626 94 624 q 65 640 71 629 q 58 664 60 651 q 54 688 57 676 q 42 777 43 731 q 54 867 42 824 q 94 947 67 911 q 167 1001 121 982 q 308 1028 232 1029 q 450 997 385 1026 q 563 911 518 967 q 625 790 607 856 q 634 655 643 724 q 586 530 625 586 q 477 436 547 474 q 304 396 407 399 m 306 7 q 265 -14 290 -7 q 211 -20 239 -21 q 159 -11 183 -19 q 122 15 135 -3 q 113 42 115 26 q 113 76 111 58 q 120 109 115 93 q 132 136 125 125 q 169 169 146 157 q 219 182 193 181 q 271 175 246 183 q 313 149 296 167 q 336 103 331 131 q 328 40 342 76 q 306 7 322 24 z "},"@":{"ha":1094,"x_min":33,"x_max":1071,"o":"m 631 700 q 660 726 638 717 q 707 736 682 735 q 755 731 732 738 q 788 710 778 724 q 797 680 794 699 q 799 649 799 661 q 793 603 799 640 q 781 517 788 567 q 772 416 775 468 q 774 328 769 364 q 795 280 779 292 q 843 300 811 268 q 874 345 861 318 q 894 402 888 372 q 905 462 901 432 q 908 517 908 492 q 867 724 908 643 q 762 845 826 804 q 619 888 697 886 q 469 862 542 890 q 338 775 397 833 q 254 635 279 717 q 228 483 231 561 q 240 329 225 404 q 309 180 260 238 q 426 94 358 122 q 573 66 493 65 q 735 92 653 67 q 766 102 750 96 q 797 103 782 108 q 819 86 811 99 q 831 58 828 74 q 831 28 835 43 q 817 3 828 13 q 746 -37 789 -24 q 665 -56 703 -51 q 544 -56 604 -62 q 424 -42 483 -50 q 297 -8 358 -32 q 186 61 235 15 q 90 202 125 121 q 44 372 54 283 q 47 549 33 460 q 99 713 61 638 q 181 832 131 778 q 289 926 231 886 q 371 971 328 953 q 460 996 414 989 q 640 1000 547 1008 q 817 958 733 992 q 981 837 922 915 q 1055 664 1039 758 q 1048 469 1071 569 q 969 281 1025 368 q 931 230 953 253 q 881 192 910 207 q 819 173 851 176 q 754 172 786 169 q 674 201 713 175 q 624 268 635 226 q 600 239 613 253 q 572 214 588 225 q 513 188 544 193 q 451 191 481 183 q 394 218 421 199 q 349 265 367 238 q 306 375 318 313 q 301 501 294 438 q 333 619 308 564 q 399 706 357 674 q 499 741 440 739 q 631 700 557 743 m 517 331 q 553 331 535 315 q 583 380 571 347 q 600 454 594 413 q 601 532 606 496 q 578 590 596 568 q 528 607 561 613 q 494 569 508 604 q 475 488 479 533 q 480 398 471 443 q 517 331 489 353 z "},"A":{"ha":788,"x_min":1,"x_max":775,"o":"m 214 356 q 203 306 210 339 q 187 234 196 274 q 166 153 178 194 q 140 76 154 111 q 110 19 126 42 q 78 -7 94 -4 q 58 -6 71 -8 q 32 1 44 -4 q 10 15 19 7 q 3 32 1 22 q 22 122 6 51 q 64 287 39 192 q 117 489 89 382 q 173 690 146 596 q 221 851 200 783 q 250 935 242 918 q 270 964 258 950 q 297 988 282 978 q 365 1006 328 1007 q 436 1003 403 1006 q 506 992 471 1000 q 567 956 542 983 q 619 865 603 917 q 646 765 635 814 q 669 638 660 701 q 690 510 679 574 q 712 382 700 446 q 740 256 724 318 q 752 211 744 240 q 766 151 760 182 q 774 93 772 121 q 768 51 775 65 q 747 27 760 36 q 717 13 733 18 q 683 6 700 8 q 651 1 665 3 q 574 -1 615 -3 q 506 31 533 0 q 478 91 489 49 q 462 182 468 133 q 451 276 456 231 q 446 349 447 322 q 331 357 390 356 q 214 356 271 358 m 238 456 q 338 455 289 456 q 439 457 388 454 q 437 489 439 463 q 431 553 435 515 q 421 636 426 592 q 408 721 415 681 q 390 793 400 761 q 369 838 381 825 q 344 838 357 850 q 315 781 331 826 q 272 619 289 701 q 238 456 256 536 z "},"B":{"ha":881,"x_min":46,"x_max":850,"o":"m 693 522 q 769 470 738 503 q 819 397 801 438 q 842 311 838 357 q 839 218 847 265 q 797 106 826 150 q 726 35 768 61 q 632 -1 683 10 q 525 -15 581 -12 q 414 -14 469 -17 q 307 -10 358 -11 q 256 -12 283 -10 q 200 -15 228 -14 q 146 -14 172 -17 q 99 0 119 -11 q 78 19 86 6 q 71 78 74 28 q 66 200 68 128 q 63 356 64 272 q 63 516 63 440 q 63 650 63 592 q 63 728 63 708 q 60 767 63 742 q 56 820 58 793 q 53 871 54 847 q 54 906 51 894 q 60 965 46 943 q 100 999 74 988 q 161 1013 126 1011 q 228 1010 196 1014 q 285 997 260 1006 q 318 981 310 989 q 329 960 326 971 q 335 938 332 949 q 485 1011 408 994 q 628 1015 561 1028 q 747 963 694 1001 q 824 868 799 924 q 843 744 850 813 q 786 606 836 676 q 744 558 767 581 q 693 522 721 536 m 368 564 q 468 576 428 553 q 532 638 508 599 q 561 724 556 676 q 557 810 567 771 q 522 872 547 850 q 456 883 496 894 q 414 860 431 876 q 388 821 397 843 q 372 774 378 799 q 365 726 367 749 q 365 646 363 688 q 368 564 368 604 m 368 461 q 365 385 368 436 q 359 281 361 335 q 357 180 357 226 q 364 117 357 133 q 386 90 369 99 q 466 86 422 71 q 533 132 510 101 q 566 200 553 158 q 581 286 579 242 q 572 371 583 331 q 535 435 561 411 q 494 459 514 453 q 453 465 474 465 q 413 463 433 465 q 368 461 392 460 z "},"C":{"ha":738,"x_min":26,"x_max":719,"o":"m 578 11 q 492 -22 538 -11 q 399 -33 446 -33 q 307 -19 353 -32 q 222 17 261 -7 q 110 134 154 58 q 47 302 67 210 q 29 496 26 394 q 57 690 32 597 q 128 857 82 782 q 243 972 175 932 q 299 995 269 988 q 360 1007 329 1003 q 484 1008 422 1015 q 596 976 546 1001 q 679 902 646 950 q 717 782 713 854 q 719 726 719 756 q 692 683 719 697 q 644 674 661 669 q 617 695 626 679 q 605 735 608 711 q 597 785 601 760 q 586 833 593 811 q 563 867 579 854 q 501 887 539 885 q 438 876 464 889 q 385 807 407 863 q 351 675 364 751 q 336 511 339 599 q 340 344 333 424 q 363 201 346 264 q 406 115 379 139 q 475 87 442 82 q 538 113 508 92 q 594 163 568 135 q 640 204 619 190 q 676 217 661 219 q 699 203 692 215 q 706 172 706 190 q 696 133 706 153 q 646 63 676 94 q 578 11 615 32 z "},"D":{"ha":901,"x_min":50,"x_max":872,"o":"m 338 21 q 290 -5 329 6 q 203 -15 250 -15 q 115 0 156 -15 q 63 53 74 15 q 58 118 58 68 q 58 235 57 168 q 62 381 60 303 q 67 534 64 460 q 70 671 69 608 q 69 769 71 733 q 58 851 67 810 q 50 932 50 892 q 55 961 50 947 q 71 986 60 975 q 121 1003 83 996 q 201 1012 158 1010 q 283 1010 244 1014 q 336 997 322 1007 q 353 975 349 989 q 361 947 358 961 q 511 997 429 986 q 679 972 610 1011 q 792 860 749 932 q 853 695 835 789 q 872 506 872 601 q 851 323 871 411 q 800 176 832 235 q 737 91 775 131 q 651 28 699 51 q 581 8 622 14 q 497 1 540 1 q 410 7 453 1 q 338 21 368 13 m 354 114 q 463 114 418 93 q 538 183 508 135 q 582 300 567 231 q 601 445 597 369 q 597 597 604 521 q 574 736 589 674 q 535 840 558 799 q 486 888 513 881 q 455 886 472 892 q 420 871 438 881 q 388 849 403 861 q 364 828 374 838 q 365 470 364 647 q 354 114 365 293 z "},"E":{"ha":783,"x_min":21,"x_max":781,"o":"m 158 538 q 94 620 111 568 q 87 731 78 672 q 130 848 96 790 q 218 947 164 906 q 344 1006 272 989 q 500 1001 415 1024 q 532 992 511 999 q 574 976 553 985 q 613 958 594 968 q 638 940 631 949 q 669 865 665 903 q 662 802 672 828 q 631 769 651 776 q 593 786 611 763 q 578 822 582 801 q 563 860 574 843 q 533 883 551 875 q 492 894 514 892 q 449 893 471 896 q 413 885 428 890 q 360 840 381 872 q 333 773 339 808 q 338 706 326 738 q 385 661 350 674 q 421 655 400 656 q 462 653 442 654 q 501 649 482 653 q 531 635 519 646 q 546 608 540 625 q 552 572 551 592 q 551 535 553 553 q 543 506 549 517 q 519 481 535 488 q 482 474 503 475 q 438 473 461 472 q 394 468 415 474 q 354 447 372 463 q 325 400 336 432 q 310 288 306 347 q 340 179 314 229 q 410 110 367 129 q 500 97 453 92 q 591 129 547 103 q 663 194 635 156 q 683 225 674 210 q 708 253 693 240 q 746 269 731 271 q 769 253 761 267 q 779 220 778 240 q 775 182 781 200 q 721 88 760 129 q 597 6 674 38 q 435 -33 519 -25 q 269 -26 350 -42 q 132 31 188 -11 q 59 119 85 67 q 27 231 33 172 q 32 349 21 290 q 69 458 43 408 q 106 508 86 490 q 158 538 125 525 z "},"F":{"ha":658,"x_min":47,"x_max":653,"o":"m 324 467 q 321 363 324 414 q 318 260 318 313 q 320 208 318 242 q 322 137 322 174 q 317 69 321 100 q 300 25 313 38 q 275 10 289 14 q 247 6 261 7 q 205 2 232 4 q 149 1 178 0 q 97 8 121 3 q 63 28 72 14 q 53 56 54 40 q 50 88 51 72 q 51 194 47 140 q 58 301 56 249 q 69 577 67 440 q 74 853 71 714 q 71 884 74 864 q 67 925 68 904 q 70 964 67 946 q 85 989 74 982 q 126 997 92 993 q 208 1002 160 1000 q 310 1005 256 1004 q 416 1006 365 1006 q 506 1008 467 1007 q 561 1008 546 1008 q 599 1008 574 1008 q 635 1000 625 1007 q 649 978 644 993 q 652 946 653 963 q 646 913 651 929 q 632 890 640 897 q 572 877 615 878 q 479 878 528 876 q 390 881 431 881 q 339 868 349 881 q 331 845 333 861 q 328 810 329 829 q 328 774 328 792 q 328 747 328 757 q 331 653 328 686 q 350 607 333 621 q 401 593 367 593 q 497 596 435 593 q 520 597 506 596 q 550 599 535 599 q 579 599 565 600 q 600 594 593 599 q 616 571 610 589 q 623 532 622 553 q 619 492 624 511 q 606 468 615 474 q 558 461 597 463 q 471 460 518 460 q 381 463 424 461 q 324 467 339 465 z "},"G":{"ha":786,"x_min":25,"x_max":764,"o":"m 607 400 q 561 397 583 397 q 515 394 539 396 q 489 392 504 394 q 459 391 474 390 q 432 396 444 392 q 413 411 419 400 q 402 451 403 428 q 415 489 401 474 q 460 499 421 496 q 547 505 500 503 q 638 508 594 507 q 697 510 682 510 q 722 510 711 511 q 744 499 733 508 q 762 454 764 479 q 743 410 760 429 q 731 365 732 397 q 727 291 729 333 q 717 201 725 249 q 686 109 710 153 q 617 29 663 65 q 493 -25 571 -7 q 290 -15 389 -49 q 126 106 192 19 q 65 226 88 156 q 33 377 42 297 q 32 541 25 457 q 61 702 39 625 q 120 843 83 779 q 208 947 157 907 q 317 999 253 982 q 449 1014 382 1017 q 576 987 517 1011 q 672 914 636 963 q 703 849 694 885 q 717 778 713 814 q 719 759 718 771 q 719 735 719 747 q 717 713 719 724 q 711 697 715 703 q 676 678 700 682 q 635 681 651 674 q 608 711 613 689 q 602 761 604 733 q 593 817 600 789 q 560 865 586 846 q 514 885 539 881 q 465 883 489 889 q 422 862 442 878 q 392 822 403 846 q 365 732 376 790 q 345 602 353 674 q 335 453 338 531 q 340 306 333 375 q 365 185 347 238 q 411 110 382 132 q 440 96 424 100 q 472 92 457 92 q 564 124 531 92 q 611 204 597 157 q 622 305 625 251 q 607 400 619 358 z "},"H":{"ha":1001,"x_min":47,"x_max":949,"o":"m 325 -12 q 265 -17 304 -15 q 186 -15 226 -18 q 112 0 146 -11 q 67 32 78 11 q 61 94 63 42 q 60 223 60 147 q 63 387 61 299 q 67 555 65 475 q 69 696 68 635 q 68 778 69 757 q 63 814 67 790 q 54 862 58 838 q 49 908 50 886 q 51 939 47 929 q 79 965 58 954 q 128 983 100 976 q 190 990 157 989 q 253 990 224 992 q 308 981 283 988 q 343 964 332 974 q 367 917 360 950 q 378 844 375 885 q 380 757 381 803 q 378 669 379 711 q 378 594 378 628 q 385 542 379 560 q 425 519 390 526 q 501 513 460 513 q 579 519 543 513 q 624 536 615 525 q 635 583 631 546 q 641 662 639 619 q 644 743 643 704 q 644 794 644 782 q 635 893 642 857 q 635 949 628 929 q 674 977 643 969 q 778 989 704 985 q 838 997 807 992 q 899 989 869 1001 q 924 964 917 982 q 935 928 932 946 q 938 820 940 875 q 936 711 935 765 q 939 618 936 674 q 944 498 942 563 q 947 365 946 433 q 947 235 949 297 q 942 122 946 172 q 929 40 938 71 q 919 18 926 29 q 901 0 913 7 q 876 -6 894 -4 q 838 -7 858 -7 q 797 -6 817 -7 q 768 -6 778 -6 q 737 -6 757 -6 q 696 -8 717 -7 q 657 -8 675 -8 q 631 -3 639 -7 q 607 35 614 6 q 599 106 600 65 q 601 192 599 146 q 604 278 603 238 q 603 347 606 318 q 590 381 600 375 q 557 387 583 385 q 499 390 531 389 q 439 392 468 392 q 399 393 410 393 q 384 393 393 393 q 371 390 375 393 q 368 375 367 386 q 369 358 369 364 q 365 272 371 315 q 361 185 360 229 q 365 142 361 169 q 372 88 369 115 q 371 35 374 60 q 357 0 368 11 q 342 -9 350 -7 q 325 -12 333 -11 z "},"I":{"ha":413,"x_min":53,"x_max":360,"o":"m 200 3 q 168 2 185 3 q 134 4 151 1 q 101 13 117 7 q 76 33 86 19 q 61 74 64 50 q 57 118 58 99 q 57 381 53 249 q 63 643 61 513 q 65 733 63 688 q 65 824 68 779 q 61 872 63 847 q 63 919 60 896 q 69 956 64 938 q 89 986 74 974 q 128 1002 101 997 q 184 1007 154 1007 q 242 1004 214 1007 q 286 999 269 1001 q 335 974 322 992 q 351 921 349 957 q 355 680 360 801 q 350 438 350 558 q 353 350 350 396 q 358 258 356 304 q 359 166 360 211 q 350 82 358 121 q 322 28 343 47 q 296 13 311 18 q 264 6 281 8 q 231 3 247 4 q 200 3 214 3 z "},"J":{"ha":733,"x_min":7,"x_max":692,"o":"m 401 550 q 397 590 400 557 q 389 667 393 622 q 381 763 385 713 q 374 858 378 814 q 369 931 371 901 q 369 963 368 960 q 385 983 375 976 q 410 994 396 990 q 438 998 424 997 q 464 999 451 999 q 503 1000 478 999 q 556 1001 529 1001 q 606 997 583 1001 q 639 983 629 993 q 657 943 650 971 q 668 883 664 915 q 675 822 672 851 q 679 774 678 792 q 690 522 689 647 q 668 272 692 397 q 640 174 658 222 q 592 83 622 125 q 490 1 551 29 q 363 -31 429 -28 q 232 -14 297 -35 q 118 51 167 7 q 53 137 78 88 q 17 239 28 186 q 10 285 13 257 q 9 342 7 314 q 19 394 11 369 q 46 431 28 418 q 85 444 72 449 q 105 422 99 440 q 112 374 111 403 q 113 315 113 346 q 117 256 114 285 q 132 207 121 226 q 161 170 143 186 q 201 144 179 154 q 247 134 224 135 q 293 143 271 133 q 359 212 336 161 q 392 324 382 263 q 401 445 401 385 q 400 546 401 506 l 401 550 l 401 550 z "},"K":{"ha":824,"x_min":50,"x_max":819,"o":"m 361 543 q 399 579 374 544 q 457 666 425 614 q 524 777 489 718 q 592 887 560 836 q 651 970 625 938 q 693 1000 678 1003 q 708 992 699 999 q 728 976 718 985 q 748 960 739 968 q 761 947 757 951 q 774 908 778 931 q 753 867 771 896 q 709 803 735 839 q 654 726 683 767 q 602 649 625 686 q 565 583 579 613 q 557 540 551 554 q 572 524 560 533 q 597 505 583 515 q 624 485 611 494 q 643 468 638 475 q 661 440 654 456 q 672 407 668 424 q 715 278 692 339 q 771 156 739 218 q 784 131 775 147 q 801 98 793 115 q 815 65 810 81 q 817 40 819 49 q 779 19 813 29 q 705 0 746 8 q 626 -12 664 -8 q 578 -12 589 -15 q 551 7 560 -8 q 532 70 540 25 q 515 167 524 115 q 495 267 506 219 q 471 338 485 315 q 433 374 456 361 q 386 403 410 388 q 367 401 376 401 q 349 400 358 400 q 347 353 346 385 q 349 281 347 321 q 353 197 351 240 q 357 115 356 153 q 358 51 358 78 q 353 17 357 24 q 313 -4 344 1 q 244 -10 282 -10 q 172 -6 207 -10 q 122 0 138 -3 q 81 16 94 4 q 64 57 68 28 q 60 146 58 101 q 64 235 61 190 q 67 392 68 314 q 65 549 65 469 q 67 701 65 625 q 60 851 68 776 q 55 883 58 864 q 51 921 51 901 q 53 958 50 940 q 65 985 56 976 q 94 996 75 993 q 135 999 114 999 q 178 997 157 999 q 213 994 200 994 q 242 995 224 994 q 281 996 261 996 q 319 993 301 996 q 347 982 338 990 q 360 965 356 975 q 367 946 364 956 q 373 858 374 910 q 369 751 372 807 q 362 641 365 696 q 361 543 358 586 z "},"L":{"ha":672,"x_min":50,"x_max":688,"o":"m 401 -12 q 331 -15 372 -15 q 248 -10 290 -15 q 168 8 206 -4 q 108 43 131 21 q 78 97 89 63 q 60 169 67 131 q 52 247 54 208 q 50 311 50 285 q 53 392 50 351 q 60 472 57 432 q 61 535 61 490 q 62 635 61 579 q 63 751 63 690 q 67 865 64 813 q 74 954 69 917 q 88 1001 79 992 q 140 1023 101 1017 q 220 1025 178 1029 q 299 1007 263 1021 q 346 969 335 993 q 359 910 357 946 q 358 833 361 874 q 351 755 356 793 q 344 690 346 717 q 341 619 343 665 q 338 515 339 572 q 340 397 338 458 q 347 282 342 336 q 361 187 351 228 q 388 131 371 146 q 434 108 407 111 q 491 108 461 104 q 551 120 521 113 q 607 129 581 128 q 653 122 633 131 q 681 88 672 114 q 676 51 688 67 q 630 31 668 42 q 546 11 592 21 q 458 -5 500 1 q 401 -12 417 -11 z "},"M":{"ha":1154,"x_min":47,"x_max":1110,"o":"m 297 688 q 302 469 300 578 q 313 251 304 361 q 321 166 315 208 q 326 81 326 124 q 326 51 326 65 q 321 24 325 38 q 281 -24 310 -8 q 241 -31 269 -29 q 179 -31 213 -32 q 116 -27 146 -29 q 74 -22 86 -25 q 54 7 47 -15 q 62 49 61 28 q 64 93 63 71 q 69 337 68 215 q 65 581 71 458 q 60 663 64 614 q 53 764 56 713 q 51 862 50 815 q 61 938 53 908 q 95 988 72 972 q 153 1008 118 1003 q 238 1010 192 1015 q 322 996 283 1004 q 360 985 342 992 q 393 963 379 978 q 410 926 401 953 q 428 865 419 900 q 444 790 436 831 q 458 713 451 750 q 471 643 465 675 q 482 593 476 611 q 502 515 492 556 q 528 438 513 474 q 535 422 529 433 q 550 397 542 410 q 566 376 558 385 q 578 369 574 367 q 601 422 588 375 q 631 534 615 468 q 667 676 647 600 q 706 819 686 753 q 749 934 726 886 q 793 992 771 982 q 826 999 803 996 q 878 1002 849 1001 q 940 1002 907 1003 q 1001 998 972 1001 q 1051 990 1029 994 q 1081 978 1072 985 q 1101 941 1094 965 q 1108 889 1107 917 q 1108 834 1110 861 q 1106 790 1107 807 q 1083 508 1092 647 q 1082 226 1075 369 q 1085 180 1082 211 q 1091 115 1089 149 q 1090 53 1093 82 q 1076 14 1088 24 q 1041 -1 1065 4 q 988 -8 1017 -6 q 933 -11 960 -11 q 893 -10 907 -11 q 863 -6 878 -8 q 836 7 847 -4 q 815 51 821 21 q 809 117 810 82 q 811 186 808 153 q 815 239 814 219 q 824 435 822 338 q 824 633 825 533 q 753 474 779 554 q 699 310 726 394 q 675 254 689 282 q 635 210 661 226 q 592 191 617 199 q 543 183 568 183 q 494 188 518 182 q 454 211 471 194 q 428 258 442 224 q 399 337 414 292 q 369 433 383 382 q 342 533 356 485 q 317 623 328 582 q 297 688 306 664 z "},"N":{"ha":919,"x_min":39,"x_max":881,"o":"m 335 778 q 413 915 360 857 q 549 996 467 972 q 625 1005 586 1007 q 700 992 664 1003 q 808 919 769 969 q 864 803 847 869 q 880 660 881 738 q 872 507 879 583 q 854 360 864 431 q 842 239 844 290 q 843 158 839 199 q 847 78 847 118 q 838 28 847 47 q 797 -1 829 8 q 745 -12 779 -7 q 676 -15 711 -17 q 612 -5 640 -14 q 576 28 583 4 q 567 130 563 69 q 582 259 571 190 q 606 401 593 328 q 624 544 619 475 q 619 672 628 613 q 576 774 610 732 q 554 795 567 785 q 526 807 542 806 q 495 798 510 808 q 469 776 481 788 q 401 658 424 729 q 369 503 378 586 q 360 337 360 421 q 364 182 361 253 q 367 61 367 111 q 357 -1 367 11 q 331 -15 349 -12 q 292 -18 313 -18 q 251 -16 271 -18 q 218 -14 231 -14 q 188 -15 206 -14 q 153 -15 171 -15 q 119 -12 136 -14 q 93 -3 103 -10 q 72 25 79 7 q 69 67 69 32 q 68 153 68 103 q 68 261 68 203 q 69 372 68 319 q 70 465 69 425 q 71 518 71 504 q 71 703 71 610 q 60 889 71 797 q 48 936 57 908 q 46 983 39 964 q 74 1002 51 997 q 123 1008 96 1007 q 176 1006 150 1008 q 215 1004 203 1004 q 297 983 271 1003 q 331 931 322 963 q 337 860 339 900 q 335 778 335 819 z "},"O":{"ha":838,"x_min":32,"x_max":804,"o":"m 507 -25 q 295 -14 385 -39 q 147 70 206 11 q 60 219 89 129 q 32 426 32 310 q 38 539 32 479 q 56 658 43 599 q 92 772 69 717 q 148 872 114 826 q 229 949 182 917 q 339 994 276 982 q 392 1001 365 1000 q 447 1003 419 1003 q 613 974 549 1004 q 717 888 678 943 q 774 757 756 832 q 799 596 792 682 q 803 456 804 524 q 789 323 801 388 q 749 197 776 258 q 678 75 722 135 q 604 3 642 26 q 507 -25 567 -19 m 393 265 q 409 214 399 243 q 435 159 419 185 q 474 115 451 133 q 524 99 496 97 q 606 150 572 100 q 660 275 640 200 q 689 440 681 350 q 693 613 697 531 q 674 758 689 694 q 636 843 660 821 q 619 855 628 850 q 599 864 610 860 q 555 876 579 871 q 511 879 531 882 q 485 860 497 876 q 467 832 474 843 q 415 708 436 782 q 385 555 394 635 q 378 398 376 475 q 393 265 379 321 z "},"P":{"ha":822,"x_min":53,"x_max":811,"o":"m 329 292 q 335 230 331 269 q 342 148 339 190 q 342 68 344 106 q 329 14 340 31 q 286 -13 317 -4 q 220 -24 256 -22 q 151 -20 185 -25 q 103 -4 118 -15 q 78 24 88 6 q 64 63 69 42 q 57 104 58 83 q 56 142 56 125 q 62 484 53 314 q 68 826 71 654 q 64 883 68 854 q 63 940 60 913 q 67 963 64 951 q 76 982 69 974 q 126 1001 89 996 q 206 1003 164 1007 q 281 985 247 999 q 321 949 315 972 q 418 972 364 965 q 526 972 472 978 q 630 947 581 965 q 714 894 679 928 q 727 882 721 888 q 736 868 733 876 l 744 860 q 767 824 757 844 q 784 780 776 803 q 796 733 792 757 q 803 692 800 710 q 792 524 811 603 q 728 385 774 444 q 610 294 682 326 q 443 267 539 263 q 385 274 414 268 q 329 292 357 281 m 324 392 q 362 375 342 383 q 401 369 382 367 q 475 408 443 372 q 527 497 507 444 q 553 609 547 549 q 549 724 560 669 q 508 816 538 778 q 428 863 479 854 q 354 838 379 869 q 325 763 329 807 q 319 577 317 671 q 324 392 321 483 z "},"Q":{"ha":839,"x_min":32,"x_max":821,"o":"m 696 99 q 724 55 706 83 q 763 -3 743 26 q 798 -61 782 -33 q 817 -101 814 -89 q 815 -137 821 -121 q 795 -165 808 -154 q 764 -179 782 -176 q 729 -171 746 -182 q 701 -139 717 -162 q 669 -87 685 -115 q 640 -31 654 -58 q 618 13 626 -3 q 508 -24 569 -18 q 389 -28 446 -31 q 221 16 289 -22 q 110 115 153 54 q 50 256 68 176 q 32 426 32 336 q 39 565 32 494 q 65 700 46 635 q 119 825 85 765 q 207 932 153 885 q 260 967 233 954 q 315 988 286 981 q 373 997 343 994 q 436 1001 403 999 q 676 933 588 1010 q 786 708 764 856 q 802 552 797 632 q 799 393 807 472 q 766 240 790 314 q 696 99 742 165 m 638 206 q 664 290 651 236 q 683 407 676 343 q 692 540 690 471 q 690 669 694 608 q 672 776 685 729 q 636 843 658 822 q 619 855 628 850 q 599 864 610 860 q 556 878 574 872 q 523 881 538 883 q 494 867 508 879 q 467 832 481 856 q 408 685 431 775 q 380 497 386 594 q 386 309 374 400 q 435 160 399 218 q 470 119 449 138 q 519 99 492 101 q 563 111 540 97 q 540 144 556 124 q 508 187 524 165 q 479 226 492 208 q 467 251 467 244 q 486 292 467 274 q 526 314 506 311 q 563 306 546 317 q 594 277 581 294 q 619 240 608 260 q 638 206 629 219 z "},"R":{"ha":871,"x_min":50,"x_max":847,"o":"m 344 378 q 348 331 346 363 q 353 258 350 299 q 358 175 356 218 q 359 94 360 132 q 355 30 358 57 q 343 -6 351 3 q 316 -15 338 -11 q 265 -21 294 -19 q 202 -22 236 -22 q 138 -15 168 -21 q 86 -1 108 -10 q 57 24 64 8 q 50 68 50 38 q 53 134 50 99 q 59 202 56 169 q 64 253 63 235 q 69 426 69 340 q 67 600 68 513 q 66 709 65 654 q 65 818 67 764 q 58 881 64 850 q 51 943 51 911 q 52 960 51 951 q 56 976 53 969 q 97 998 63 992 q 172 1004 131 1004 q 251 998 214 1004 q 303 983 289 992 q 325 957 318 974 q 335 925 332 940 q 413 967 371 950 q 500 993 456 985 q 656 982 589 1010 q 765 901 724 954 q 822 778 807 849 q 824 640 838 708 q 765 514 810 572 q 642 426 719 456 q 708 374 678 407 q 748 315 722 358 q 797 224 774 272 q 833 131 819 175 q 839 67 847 86 q 816 38 832 49 q 783 21 800 28 q 660 -14 706 -15 q 588 14 614 -12 q 549 84 563 40 q 520 177 535 128 q 484 275 506 226 q 419 358 463 324 q 384 373 404 371 q 344 378 364 375 m 388 488 q 453 494 419 488 q 514 517 486 501 q 570 575 550 538 q 594 655 590 613 q 588 740 599 697 q 551 813 576 782 q 506 850 532 835 q 451 869 479 865 q 397 863 422 874 q 353 822 371 851 q 328 746 336 796 q 322 644 319 696 q 340 547 324 592 q 388 488 356 503 z "},"S":{"ha":725,"x_min":26,"x_max":697,"o":"m 522 -1 q 403 -26 469 -24 q 273 -12 338 -28 q 151 36 208 4 q 57 114 93 68 q 41 138 49 124 q 30 169 33 153 q 28 200 26 185 q 40 226 29 215 q 82 244 60 249 q 124 222 104 240 q 156 183 143 204 q 188 143 169 161 q 244 103 206 125 q 326 70 283 82 q 406 63 368 58 q 457 104 443 68 q 453 167 469 135 q 401 236 436 200 q 321 312 367 272 q 227 394 275 351 q 137 486 179 438 q 67 588 94 535 q 35 701 40 642 q 56 828 29 761 q 131 942 82 892 q 247 1015 181 992 q 379 1033 310 1038 q 509 1000 449 1029 q 613 919 569 971 q 663 797 656 868 q 667 765 664 785 q 675 725 671 746 q 681 685 679 704 q 679 657 682 667 q 659 630 672 639 q 629 619 646 621 q 597 624 613 618 q 568 642 581 629 q 557 672 561 649 q 548 726 553 696 q 534 790 543 757 q 509 849 525 824 q 467 887 493 874 q 401 892 442 900 q 366 870 378 886 q 351 834 354 854 q 350 792 347 814 q 358 751 353 769 q 403 663 372 703 q 474 585 435 624 q 554 510 513 547 q 628 430 596 472 q 678 338 660 388 q 692 225 697 288 q 649 104 686 161 q 522 -1 603 33 z "},"T":{"ha":735,"x_min":-12,"x_max":747,"o":"m 496 868 q 495 621 494 743 q 500 374 496 499 q 504 294 501 344 q 507 191 507 244 q 501 91 507 138 q 478 24 494 44 q 444 -1 464 7 q 406 -11 425 -8 q 366 -15 390 -14 q 316 -15 342 -15 q 267 -9 290 -14 q 232 6 244 -4 q 215 28 221 15 q 207 56 210 40 q 203 96 203 75 q 203 136 203 117 q 209 501 206 319 q 219 867 213 683 q 167 866 200 868 q 100 865 133 864 q 38 872 67 865 q 0 897 10 878 q -9 954 -12 922 q 19 1001 -6 986 q 64 1013 38 1013 q 135 1008 100 1013 q 207 1001 171 1003 q 274 1002 232 1000 q 367 1006 317 1004 q 472 1010 418 1008 q 574 1013 526 1013 q 659 1013 622 1014 q 713 1007 696 1011 q 736 985 728 1003 q 746 948 744 968 q 742 909 747 928 q 724 882 736 890 q 681 872 713 875 q 614 867 650 868 q 544 867 578 867 q 496 868 510 868 z "},"U":{"ha":871,"x_min":42,"x_max":829,"o":"m 606 4 q 485 -25 549 -21 q 360 -19 421 -29 q 217 31 274 -6 q 125 119 160 67 q 74 241 90 172 q 51 388 57 310 q 45 635 42 513 q 64 882 49 757 q 69 919 67 901 q 81 954 72 938 q 117 992 93 981 q 153 999 128 997 q 207 999 178 1000 q 263 995 236 997 q 301 990 289 993 q 349 972 329 985 q 375 931 368 960 q 381 865 381 900 q 378 792 381 829 q 372 719 375 756 q 367 651 368 683 q 363 551 364 610 q 365 433 363 493 q 373 316 367 372 q 390 221 379 260 q 424 153 403 181 q 474 116 446 126 q 535 115 503 106 q 599 157 567 124 q 642 224 626 186 q 669 301 658 263 q 690 419 683 356 q 698 549 697 483 q 695 678 699 614 q 686 799 692 742 q 681 838 685 814 q 676 889 678 863 q 675 938 674 915 q 685 974 676 961 q 708 991 693 986 q 740 994 724 996 q 773 986 757 993 q 797 969 789 979 q 813 926 807 957 q 822 861 819 896 q 826 793 825 826 q 828 742 828 760 q 829 621 829 689 q 824 479 829 553 q 805 332 818 406 q 767 194 792 258 q 703 79 742 129 q 606 4 664 29 z "},"V":{"ha":788,"x_min":14,"x_max":788,"o":"m 475 3 q 415 -8 447 -8 q 353 -4 382 -7 q 282 7 318 -1 q 221 43 246 15 q 178 119 197 68 q 144 234 160 169 q 115 372 128 299 q 90 514 101 444 q 68 643 79 583 q 47 743 57 703 q 35 788 43 760 q 22 847 28 817 q 15 906 17 878 q 21 947 14 933 q 42 972 29 963 q 72 985 56 981 q 105 993 88 990 q 138 997 122 996 q 210 1000 179 1001 q 261 986 240 999 q 295 948 282 974 q 317 879 308 922 q 335 748 329 814 q 344 615 340 682 q 353 483 349 549 q 367 350 358 417 q 373 307 368 335 q 385 250 378 279 q 401 197 392 221 q 422 164 411 172 q 452 172 439 153 q 475 222 465 192 q 491 283 485 253 q 500 324 497 314 q 518 403 506 347 q 547 531 531 460 q 581 678 563 601 q 619 822 600 756 q 654 935 638 888 q 685 993 671 982 q 732 1004 706 1010 q 778 986 758 999 q 785 967 788 981 q 751 825 772 896 q 713 683 731 754 q 644 424 678 553 q 575 165 611 296 q 560 114 568 139 q 539 65 551 89 q 513 28 528 46 q 475 3 497 11 z "},"W":{"ha":1149,"x_min":39,"x_max":1114,"o":"m 569 143 q 517 76 544 106 q 457 25 490 46 q 385 -4 424 4 q 299 -6 346 -12 q 186 35 233 4 q 108 113 139 67 q 60 217 76 160 q 43 335 44 274 q 50 592 39 465 q 81 846 61 718 q 84 883 82 860 q 90 930 86 907 q 103 972 94 953 q 128 997 113 990 q 181 1006 143 1003 q 261 1006 219 1008 q 339 994 303 1003 q 385 969 375 985 q 392 933 393 957 q 388 883 392 910 q 377 831 383 856 q 367 792 371 806 q 351 710 361 768 q 331 579 340 653 q 318 425 322 506 q 319 278 314 344 q 341 167 324 211 q 394 121 358 122 q 426 131 413 119 q 451 160 440 143 q 467 195 461 176 q 478 228 474 214 q 497 340 493 283 q 500 455 501 397 q 494 569 499 513 q 488 683 490 626 q 488 705 488 694 q 494 726 489 715 q 518 753 503 743 q 551 770 533 764 q 589 779 569 776 q 625 782 608 782 q 723 764 689 783 q 772 711 757 744 q 786 633 786 678 q 780 538 786 589 q 766 433 774 486 q 759 328 758 379 q 774 231 760 276 q 824 151 788 186 q 876 124 847 128 q 940 141 915 118 q 980 199 965 164 q 1001 274 994 235 q 1008 342 1007 314 q 1007 610 1017 476 q 958 874 997 743 q 946 910 953 892 q 938 947 939 928 q 947 980 936 968 q 972 995 957 992 q 1002 992 986 999 q 1028 968 1018 985 q 1038 933 1032 960 q 1050 873 1044 906 q 1060 810 1056 840 q 1068 767 1065 781 q 1096 602 1082 696 q 1112 412 1110 508 q 1097 227 1114 315 q 1029 79 1079 139 q 950 17 996 40 q 853 -13 904 -7 q 751 -8 801 -19 q 660 33 701 4 q 608 83 631 54 q 569 143 585 111 z "},"X":{"ha":800,"x_min":0,"x_max":794,"o":"m 535 639 q 574 572 550 613 q 624 484 597 532 q 677 385 650 436 q 727 285 704 333 q 766 194 750 236 q 786 125 782 153 q 754 49 794 78 q 720 26 743 40 q 672 0 697 13 q 622 -21 646 -12 q 583 -26 597 -29 q 544 -7 563 -22 q 492 67 517 17 q 444 176 467 118 q 398 289 421 233 q 353 378 375 344 q 324 324 342 357 q 288 251 307 290 q 247 172 268 213 q 206 94 225 131 q 169 31 186 58 q 143 -8 153 3 q 107 -24 126 -25 q 78 -17 94 -22 q 45 -2 61 -11 q 17 19 29 7 q 3 43 4 31 q 19 86 0 54 q 67 161 38 118 q 131 254 96 204 q 200 350 167 304 q 260 433 233 396 q 297 490 286 471 q 247 579 269 535 q 196 668 224 624 q 134 758 167 714 q 74 850 101 801 q 54 890 63 868 q 53 932 46 911 q 74 960 57 946 q 114 988 92 975 q 158 1010 136 1000 q 193 1025 179 1019 q 226 1035 210 1032 q 261 1033 243 1038 q 319 990 290 1026 q 374 907 349 953 q 422 815 400 861 q 460 742 444 768 q 486 781 468 754 q 527 839 504 807 q 576 903 550 871 q 629 959 603 935 q 678 994 656 983 q 719 996 701 1006 q 747 963 738 985 q 753 921 757 940 q 741 892 750 906 q 721 867 732 878 q 623 757 671 810 q 535 639 575 704 z "},"Y":{"ha":865,"x_min":15,"x_max":851,"o":"m 483 364 q 396 354 439 358 q 308 354 353 350 q 210 383 251 358 q 142 445 169 408 q 97 529 114 482 q 69 627 79 576 q 52 728 58 678 q 40 824 46 779 q 33 860 39 836 q 23 908 28 883 q 17 955 18 933 q 21 988 15 976 q 26 994 22 990 q 32 1000 29 999 q 67 1007 44 1007 q 104 1007 89 1007 q 151 1009 122 1007 q 210 1010 181 1011 q 267 1004 240 1010 q 306 985 293 999 q 324 931 317 971 q 335 837 331 890 q 344 724 339 783 q 356 611 349 664 q 374 519 363 558 q 404 469 385 481 q 444 465 422 458 q 478 486 465 472 q 507 544 496 504 q 526 634 518 585 q 540 738 535 683 q 551 841 546 793 q 563 926 556 889 q 579 978 569 963 q 619 1003 594 1000 q 668 1007 644 1007 q 703 1006 679 1007 q 751 1001 726 1004 q 798 995 776 999 q 828 986 819 992 q 843 966 839 979 q 849 940 847 953 q 840 842 851 890 q 819 746 829 794 q 797 607 807 685 q 772 447 788 529 q 733 285 757 365 q 672 140 710 206 q 579 31 635 75 q 444 -24 524 -12 q 365 -22 418 -28 q 255 -4 311 -17 q 153 27 199 8 q 99 67 108 46 q 97 92 94 78 q 103 117 99 106 q 111 133 106 125 q 125 147 117 142 q 156 147 133 153 q 206 130 179 140 q 260 110 233 119 q 301 100 286 101 q 380 124 349 96 q 432 193 411 151 q 464 281 453 235 q 483 364 475 328 z "},"Z":{"ha":747,"x_min":18,"x_max":740,"o":"m 472 903 q 295 903 383 913 q 119 883 207 894 q 94 882 107 882 q 69 890 81 882 q 55 909 60 897 q 50 934 50 921 q 55 959 50 947 q 68 979 60 971 q 116 994 79 989 q 203 1002 153 1000 q 310 1005 253 1004 q 420 1006 367 1006 q 517 1006 474 1006 q 581 1008 560 1006 q 619 1014 600 1011 q 657 1015 638 1017 q 682 1010 669 1014 q 706 1000 694 1007 q 728 966 722 988 q 732 921 733 944 q 724 874 731 897 q 710 835 717 851 q 664 758 690 794 q 613 686 638 722 q 569 621 600 668 q 500 511 539 574 q 420 380 461 449 q 347 251 379 311 q 295 149 314 192 q 283 99 276 107 q 306 94 285 96 q 358 92 326 93 q 426 92 389 92 q 497 91 464 92 q 556 91 531 90 q 589 92 581 92 q 614 94 599 92 q 645 100 629 97 q 676 104 661 103 q 697 104 690 106 q 722 87 711 100 q 736 58 732 74 q 737 26 740 42 q 721 1 733 10 q 672 -10 711 -6 q 578 -15 633 -14 q 460 -17 524 -17 q 340 -16 397 -17 q 236 -15 282 -15 q 172 -12 190 -14 q 119 -8 146 -11 q 69 11 92 -4 q 38 47 49 25 q 22 93 26 68 q 18 144 18 118 q 21 192 18 169 q 52 292 25 233 q 120 418 79 351 q 210 556 161 485 q 309 692 260 626 q 401 812 358 757 q 472 903 444 867 z "},"[":{"ha":464,"x_min":57,"x_max":469,"o":"m 282 -61 q 237 -63 264 -61 q 181 -65 210 -65 q 126 -62 151 -65 q 86 -51 100 -60 q 63 7 69 -40 q 57 111 57 54 q 60 221 57 168 q 64 296 64 274 q 66 467 67 382 q 68 638 65 551 q 64 815 69 725 q 69 992 58 906 q 74 1013 71 1003 q 83 1032 76 1022 q 110 1047 92 1042 q 149 1052 128 1051 q 190 1051 169 1053 q 222 1050 210 1050 q 276 1053 240 1050 q 351 1056 313 1056 q 420 1052 389 1057 q 460 1032 451 1047 q 467 1008 465 1021 q 467 981 469 994 q 458 957 465 968 q 439 942 451 946 q 410 938 428 938 q 376 941 393 939 q 344 944 358 943 q 326 942 331 946 q 322 929 324 939 q 318 908 319 919 q 316 887 317 897 q 315 871 315 876 q 307 688 307 779 q 309 505 307 596 q 315 322 311 414 q 318 139 318 231 q 318 121 318 135 q 318 92 318 107 q 320 65 318 76 q 326 53 322 53 q 356 56 339 53 q 389 60 372 60 q 419 57 406 61 q 440 39 433 53 q 445 17 444 29 q 444 -8 446 4 q 436 -32 442 -21 q 421 -49 431 -43 q 394 -57 413 -54 q 354 -60 375 -60 q 313 -61 333 -61 q 282 -61 293 -61 z "},"\\":{"ha":419,"x_min":-25,"x_max":432,"o":"m 426 -15 q 401 -44 419 -33 q 359 -58 382 -56 q 315 -56 336 -61 q 282 -36 293 -51 q 266 6 274 -26 q 251 75 258 38 q 237 148 243 113 q 226 201 231 183 q 197 301 213 251 q 165 400 181 350 q 121 563 142 482 q 75 724 100 643 q 51 790 65 754 q 24 863 38 826 q -1 933 11 899 q -19 997 -14 968 q -9 1042 -25 1025 q 31 1067 7 1060 q 80 1074 54 1075 q 119 1063 106 1072 q 132 1045 128 1056 q 139 1025 136 1035 q 157 940 150 983 q 176 854 164 896 q 252 594 215 724 q 332 335 289 465 q 381 189 356 261 q 425 42 406 117 q 431 13 429 26 q 426 -15 432 0 z "},"]":{"ha":464,"x_min":-12,"x_max":408,"o":"m 140 53 q 146 94 143 56 q 151 194 149 133 q 154 333 153 256 q 156 491 156 410 q 156 650 157 572 q 153 790 156 728 q 147 894 151 853 q 138 942 143 935 q 120 943 135 944 q 86 940 106 942 q 46 940 67 939 q 11 950 25 942 q -8 976 -3 958 q 1 1025 -12 993 q 33 1054 11 1049 q 67 1056 42 1056 q 122 1054 92 1056 q 179 1051 151 1053 q 221 1050 207 1050 q 256 1051 233 1050 q 301 1052 278 1053 q 344 1049 324 1051 q 375 1038 365 1046 q 390 1010 385 1029 q 396 971 394 992 q 397 929 397 950 q 397 896 397 908 q 397 615 397 754 q 399 332 396 475 q 404 176 400 254 q 404 21 408 99 q 401 -7 403 7 q 393 -33 400 -21 q 374 -53 385 -44 q 336 -61 364 -58 q 272 -65 308 -64 q 194 -65 235 -67 q 117 -60 153 -64 q 57 -49 82 -56 q 26 -32 32 -42 q 19 8 19 -18 q 28 46 18 33 q 51 59 36 57 q 81 60 65 61 q 112 55 96 58 q 140 53 128 51 z "},"^":{"ha":618,"x_min":15,"x_max":590,"o":"m 290 832 q 242 731 264 782 q 201 626 219 679 q 183 559 192 597 q 160 496 175 521 q 115 467 144 472 q 63 471 86 461 q 28 538 15 490 q 46 596 33 558 q 75 677 58 633 q 110 767 92 721 q 147 856 128 814 q 182 929 165 897 q 213 975 199 961 q 251 1000 228 992 q 301 1010 275 1008 q 351 1008 326 1011 q 397 999 376 1004 q 437 975 419 992 q 465 939 454 958 q 485 893 472 926 q 513 817 499 860 q 542 726 528 774 q 568 635 557 678 q 585 560 579 592 q 586 518 590 528 q 551 491 582 504 q 484 473 521 478 q 413 474 447 468 q 367 507 379 481 q 341 580 351 539 q 323 665 331 621 q 308 752 315 708 q 290 832 300 796 z "},"_":{"ha":725,"x_min":-18,"x_max":726,"o":"m 279 -175 q 218 -178 258 -175 q 135 -181 178 -181 q 56 -175 92 -181 q 6 -154 19 -169 q -8 -126 -3 -144 q -16 -90 -14 -108 q -16 -53 -18 -71 q -8 -22 -14 -35 q 17 4 0 -4 q 55 15 35 13 q 97 18 75 18 q 135 18 118 18 q 403 19 269 21 q 672 17 538 17 q 696 15 683 17 q 715 3 708 13 q 722 -19 719 -3 q 726 -53 725 -35 q 726 -87 726 -71 q 724 -112 725 -104 q 719 -133 722 -124 q 710 -150 717 -142 q 669 -167 700 -161 q 596 -176 638 -174 q 506 -179 554 -179 q 413 -178 457 -179 q 332 -176 368 -178 q 279 -175 296 -175 z "},"a":{"ha":788,"x_min":14,"x_max":758,"o":"m 494 126 q 427 48 465 85 q 339 -6 389 11 q 260 -17 300 -18 q 183 -1 219 -15 q 115 38 146 13 q 64 99 85 63 q 24 217 35 149 q 22 356 14 285 q 55 497 29 428 q 123 617 81 565 q 224 698 165 669 q 357 718 282 726 q 445 702 401 713 q 528 668 489 692 q 562 699 540 689 q 608 708 583 708 q 656 701 632 708 q 700 683 681 694 q 743 639 731 665 q 754 578 756 613 q 750 489 754 532 q 742 403 746 446 q 736 316 738 360 q 740 225 735 272 q 747 185 742 210 q 755 133 751 160 q 758 82 758 106 q 753 47 758 58 q 712 15 743 28 q 644 -4 681 1 q 572 -6 607 -10 q 521 13 538 -3 q 505 36 510 22 q 498 66 500 50 q 496 98 496 82 q 494 126 496 114 m 363 132 q 418 156 392 128 q 463 231 444 185 q 492 333 482 276 q 501 443 501 390 q 485 537 500 496 q 442 593 471 578 q 374 586 404 611 q 325 511 344 561 q 297 397 306 461 q 291 276 288 333 q 312 177 294 218 q 363 132 329 136 z "},"b":{"ha":849,"x_min":36,"x_max":832,"o":"m 343 64 q 322 19 340 36 q 276 -6 303 1 q 217 -15 249 -14 q 156 -10 185 -15 q 106 6 126 -4 q 79 31 85 17 q 74 53 75 40 q 72 75 74 65 q 67 268 65 171 q 65 461 68 365 q 59 572 65 504 q 47 710 53 639 q 39 843 42 781 q 42 938 36 906 q 70 983 46 967 q 128 1008 94 1000 q 202 1015 163 1015 q 277 1010 242 1015 q 340 996 313 1006 q 376 975 367 986 q 388 941 385 965 q 392 883 392 917 q 392 813 393 850 q 388 740 390 775 q 383 677 386 706 q 381 633 381 649 q 540 710 468 697 q 667 701 613 724 q 760 626 722 678 q 815 509 797 575 q 830 369 832 443 q 803 228 828 296 q 731 108 778 161 q 611 28 683 54 q 544 13 579 17 q 472 13 508 8 q 403 29 436 17 q 343 64 369 42 m 450 544 q 370 406 393 472 q 349 286 347 339 q 373 200 351 233 q 425 163 394 167 q 490 188 456 158 q 554 292 525 218 q 570 350 564 315 q 576 421 576 385 q 567 489 575 457 q 538 540 558 521 q 494 560 517 560 q 450 544 472 560 z "},"c":{"ha":654,"x_min":15,"x_max":640,"o":"m 497 -1 q 396 -24 447 -17 q 292 -21 344 -31 q 128 56 189 -3 q 41 196 67 115 q 22 367 15 276 q 64 539 29 458 q 157 680 99 619 q 293 760 215 740 q 365 765 328 768 q 437 750 401 763 q 503 717 472 738 q 558 671 535 697 q 582 633 568 658 q 606 578 596 607 q 622 521 617 549 q 618 478 626 493 q 600 460 613 467 q 573 453 588 454 q 545 457 558 453 q 525 471 532 461 q 507 516 514 485 q 489 575 500 547 q 458 618 478 603 q 406 615 439 633 q 381 593 390 607 q 365 564 372 579 q 340 467 351 531 q 326 336 329 404 q 334 209 324 268 q 374 125 344 150 q 419 104 394 107 q 471 106 444 101 q 523 121 497 111 q 569 138 549 131 q 607 139 590 144 q 632 120 624 133 q 638 90 640 107 q 618 58 635 74 q 561 23 593 36 q 497 -1 529 10 z "},"d":{"ha":815,"x_min":15,"x_max":785,"o":"m 474 158 q 413 78 447 117 q 336 18 378 40 q 247 -5 294 -4 q 150 26 200 -6 q 69 114 99 58 q 27 237 39 169 q 22 376 15 304 q 51 513 28 449 q 112 628 74 578 q 203 703 150 679 q 322 716 256 726 q 467 650 389 706 q 466 721 465 675 q 469 815 467 767 q 480 906 472 864 q 501 968 488 949 q 555 997 515 988 q 639 1003 594 1006 q 722 990 683 1001 q 774 958 761 979 q 783 931 781 946 q 783 903 785 917 q 774 831 781 867 q 763 760 768 796 q 739 549 746 656 q 732 338 732 443 q 736 271 732 310 q 744 192 740 232 q 749 117 747 153 q 747 58 751 81 q 713 19 743 33 q 646 -1 683 4 q 572 -2 608 -6 q 519 14 536 1 q 497 42 506 24 q 484 81 489 60 q 477 122 479 101 q 474 158 475 143 m 319 186 q 369 176 346 164 q 408 222 392 189 q 435 303 425 254 q 445 401 444 351 q 436 498 446 451 q 406 574 426 544 q 383 592 397 585 q 354 596 368 599 q 310 564 328 592 q 283 495 293 536 q 272 406 274 454 q 274 314 269 358 q 290 235 279 269 q 319 186 301 200 z "},"e":{"ha":636,"x_min":17,"x_max":617,"o":"m 340 263 q 351 198 344 231 q 374 140 358 165 q 415 103 389 115 q 483 101 442 90 q 524 115 504 107 q 565 124 543 124 q 602 106 588 124 q 614 67 617 89 q 577 16 608 35 q 518 -14 546 -3 q 410 -39 465 -33 q 301 -36 356 -44 q 163 17 219 -24 q 72 115 106 57 q 28 242 39 172 q 26 383 17 313 q 62 521 35 454 q 133 638 89 588 q 235 719 176 689 q 365 746 294 749 q 487 714 436 743 q 567 641 538 685 q 607 544 597 597 q 606 440 617 490 q 565 349 596 390 q 486 289 535 308 q 415 272 453 275 q 340 263 376 268 m 332 358 q 371 366 351 363 q 407 381 390 369 q 447 426 433 396 q 463 488 460 456 q 460 549 467 519 q 441 597 454 579 q 409 613 428 614 q 369 583 390 613 q 347 538 354 564 q 336 489 339 513 q 331 424 331 457 q 332 358 331 390 z "},"f":{"ha":671,"x_min":6,"x_max":657,"o":"m 451 388 q 454 340 451 372 q 459 270 457 308 q 462 190 461 232 q 460 112 463 149 q 453 48 458 75 q 436 11 447 21 q 383 -10 422 -1 q 302 -18 344 -18 q 224 -9 260 -18 q 183 22 189 0 q 181 53 182 28 q 179 115 179 79 q 178 194 179 151 q 178 276 178 236 q 177 346 178 315 q 176 390 176 376 q 118 385 149 388 q 60 389 88 382 q 20 426 33 394 q 6 494 7 457 q 16 564 6 531 q 47 608 26 597 q 73 615 56 613 q 110 617 90 617 q 149 617 131 618 q 178 617 167 617 q 173 756 171 685 q 199 883 175 826 q 275 971 222 939 q 422 992 328 1003 q 472 983 439 989 q 539 967 504 976 q 603 944 574 957 q 644 919 633 932 q 656 890 654 908 q 651 852 657 871 q 634 820 646 833 q 606 806 622 807 q 587 810 599 806 q 561 820 575 814 q 535 832 547 826 q 514 840 522 838 q 459 828 476 851 q 437 769 442 806 q 434 692 432 732 q 439 632 436 653 q 472 633 451 632 q 515 633 493 633 q 556 632 536 633 q 585 626 575 631 q 613 587 603 618 q 623 519 622 556 q 616 450 624 483 q 593 404 608 417 q 563 390 581 393 q 525 385 544 386 q 486 386 506 385 q 451 388 467 388 z "},"g":{"ha":779,"x_min":15,"x_max":744,"o":"m 493 713 q 545 740 513 728 q 612 754 578 751 q 676 748 646 757 q 724 714 707 739 q 734 672 732 701 q 735 609 736 643 q 733 543 735 575 q 731 494 731 511 q 731 389 728 442 q 737 283 733 336 q 742 178 740 231 q 740 72 744 125 q 721 -59 736 6 q 671 -182 706 -124 q 610 -253 647 -222 q 532 -306 574 -285 q 429 -338 485 -329 q 321 -335 374 -347 q 236 -289 268 -321 q 194 -216 204 -257 q 197 -131 185 -175 q 242 -47 208 -86 q 330 19 275 -8 q 460 56 385 47 q 457 90 458 72 q 454 124 456 107 q 317 63 389 78 q 171 86 246 49 q 62 195 99 124 q 20 351 25 267 q 41 519 15 435 q 118 665 67 603 q 246 754 169 726 q 418 753 322 782 q 493 713 458 740 m 353 215 q 397 233 378 208 q 427 299 415 257 q 444 392 439 340 q 448 493 449 444 q 440 579 447 542 q 419 631 432 617 q 394 644 407 643 q 367 640 381 646 q 342 624 354 635 q 324 603 331 614 q 304 552 313 586 q 291 477 296 518 q 287 392 286 436 q 294 312 288 349 q 315 248 301 275 q 353 215 329 221 m 463 -26 q 410 -41 440 -31 q 351 -67 379 -51 q 301 -104 324 -83 q 274 -149 279 -125 q 276 -202 267 -172 q 310 -244 286 -232 q 341 -252 324 -253 q 374 -245 358 -251 q 404 -228 390 -239 q 428 -207 418 -218 q 447 -169 440 -192 q 458 -121 454 -146 q 462 -71 461 -96 q 463 -26 463 -46 z "},"h":{"ha":796,"x_min":46,"x_max":778,"o":"m 340 511 q 410 569 372 543 q 490 611 447 596 q 599 622 554 635 q 675 574 644 610 q 724 489 706 539 q 751 388 742 439 q 763 313 757 356 q 774 227 769 271 q 776 142 778 183 q 767 69 775 100 q 753 37 761 53 q 732 10 746 21 q 701 -8 718 -1 q 667 -18 685 -15 q 626 -21 650 -21 q 578 -16 601 -21 q 534 -1 554 -11 q 504 25 514 8 q 494 71 494 43 q 499 133 494 99 q 509 206 503 168 q 517 283 515 244 q 514 356 519 321 q 490 421 508 392 q 463 449 481 436 q 426 460 446 463 q 395 440 407 457 q 376 408 383 424 q 351 299 354 360 q 349 181 347 238 q 353 79 351 124 q 343 19 356 35 q 304 -6 329 1 q 258 -15 279 -12 q 212 -17 239 -18 q 158 -12 185 -17 q 107 3 131 -7 q 71 28 83 13 q 57 52 61 39 q 50 81 53 65 q 47 135 46 108 q 49 189 47 161 q 48 342 50 264 q 46 497 46 419 q 49 651 46 574 q 65 803 53 728 q 78 862 71 833 q 101 918 86 890 q 122 949 111 935 q 149 974 133 963 q 228 1009 182 999 q 322 1016 274 1019 q 413 995 369 1013 q 484 947 457 978 q 515 871 511 915 q 490 768 519 826 q 420 665 463 714 q 338 569 378 615 l 340 511 m 336 681 q 367 725 347 696 q 402 786 388 754 q 418 847 417 818 q 394 890 419 875 q 365 892 376 901 q 347 861 354 882 q 338 812 340 840 q 335 756 336 783 q 335 708 335 729 q 336 681 336 688 z "},"i":{"ha":403,"x_min":28,"x_max":382,"o":"m 296 769 q 243 753 272 757 q 185 753 214 749 q 130 772 156 758 q 88 807 104 785 q 74 854 72 826 q 86 908 75 882 q 117 955 97 935 q 160 982 138 975 q 277 981 224 1000 q 356 926 331 963 q 371 847 382 890 q 296 769 360 803 m 43 246 q 29 313 31 263 q 33 419 28 363 q 51 526 39 476 q 76 593 63 576 q 105 613 86 606 q 144 625 124 621 q 186 630 165 629 q 222 631 207 631 q 286 619 258 629 q 336 579 314 608 q 354 540 349 561 q 363 499 360 519 q 362 443 364 482 q 355 355 360 404 q 343 251 350 306 q 327 150 336 197 q 308 68 318 103 q 289 22 299 33 q 250 -1 274 4 q 204 -10 226 -7 q 111 8 143 -15 q 65 68 79 31 q 47 153 50 106 q 43 246 44 201 z "},"j":{"ha":564,"x_min":-50,"x_max":529,"o":"m 410 769 q 349 754 385 757 q 278 760 313 751 q 219 788 244 768 q 189 842 193 808 q 192 885 186 863 q 209 926 197 907 q 237 961 221 946 q 274 982 253 976 q 391 981 338 1000 q 470 926 444 963 q 485 847 496 890 q 410 769 474 803 m 222 146 q 215 292 219 219 q 204 436 211 364 q 197 478 201 456 q 187 522 192 500 q 179 565 182 544 q 179 606 176 586 q 212 656 183 638 q 277 681 240 674 q 351 685 314 688 q 413 675 389 683 q 486 610 460 657 q 517 508 513 563 q 525 403 522 454 q 528 217 529 318 q 507 19 526 117 q 445 -165 488 -79 q 326 -306 403 -250 q 193 -360 265 -351 q 65 -340 118 -368 q -17 -262 11 -311 q -48 -152 -46 -214 q -22 -32 -50 -90 q 67 75 7 26 q 222 146 126 124 z "},"k":{"ha":713,"x_min":46,"x_max":700,"o":"m 339 279 q 344 179 339 228 q 344 91 350 131 q 312 25 339 51 q 221 -7 285 -1 q 185 -10 208 -8 q 139 -10 163 -11 q 95 -4 115 -8 q 65 11 75 0 q 57 26 60 18 q 51 40 54 33 q 47 98 47 57 q 48 185 46 139 q 52 274 50 231 q 56 339 54 317 q 65 578 61 460 q 58 818 68 697 q 55 849 57 829 q 52 890 53 869 q 52 931 51 911 q 57 958 53 950 q 112 992 68 981 q 206 1006 156 1004 q 301 995 257 1007 q 356 958 344 983 q 363 890 363 942 q 361 776 364 838 q 355 659 358 715 q 351 578 351 603 q 383 624 365 600 q 422 671 401 649 q 467 710 443 693 q 515 736 490 728 q 578 729 546 746 q 637 683 611 713 q 679 617 663 653 q 696 554 696 582 q 669 477 696 511 q 602 419 642 443 q 518 380 563 394 q 438 363 474 365 q 474 301 451 335 q 522 235 496 268 q 577 174 549 201 q 632 132 606 146 q 663 116 647 124 q 689 93 679 108 q 692 54 700 78 q 674 18 685 31 q 644 6 661 6 q 608 13 626 6 q 573 31 590 21 q 544 49 556 42 q 485 95 514 68 q 431 153 457 122 q 381 216 404 183 q 339 279 358 249 m 403 457 q 432 458 415 457 q 464 464 449 460 q 493 475 479 468 q 514 494 507 482 q 519 515 518 501 q 517 542 519 529 q 510 567 515 556 q 496 582 504 579 q 466 572 481 586 q 438 535 451 557 q 415 490 425 513 q 403 457 406 468 z "},"l":{"ha":526,"x_min":36,"x_max":514,"o":"m 300 389 q 299 333 300 365 q 299 267 297 300 q 306 203 300 233 q 325 153 311 172 q 367 121 344 124 q 408 122 389 118 q 444 127 428 126 q 471 107 461 128 q 469 54 483 78 q 424 15 456 31 q 351 -8 393 0 q 266 -15 308 -15 q 187 -6 224 -15 q 129 21 150 3 q 72 119 93 53 q 44 269 51 185 q 38 447 36 353 q 49 630 40 542 q 72 792 58 718 q 101 908 86 865 q 137 977 115 947 q 199 1019 158 1007 q 278 1033 232 1029 q 370 1028 325 1036 q 452 998 415 1019 q 503 938 489 976 q 507 860 514 906 q 481 765 500 815 q 437 660 463 714 q 385 557 411 607 q 335 463 358 507 q 300 389 313 419 z "},"m":{"ha":1186,"x_min":28,"x_max":1160,"o":"m 740 608 q 844 672 788 649 q 906 686 871 682 q 975 687 940 690 q 1042 671 1010 683 q 1093 636 1074 658 q 1128 560 1118 607 q 1142 460 1139 513 q 1143 358 1144 408 q 1144 269 1142 307 q 1151 216 1146 247 q 1158 153 1156 185 q 1156 92 1160 121 q 1139 44 1153 63 q 1100 16 1124 26 q 1050 1 1076 6 q 997 1 1024 -3 q 951 13 971 4 q 909 57 924 25 q 889 133 894 89 q 883 228 883 176 q 883 329 882 279 q 881 424 883 379 q 871 500 879 468 q 864 519 868 507 q 853 543 860 532 q 839 562 847 554 q 821 567 831 569 q 808 561 814 565 q 797 553 803 557 q 757 486 768 526 q 744 399 746 446 q 743 301 742 351 q 742 206 744 251 q 727 124 739 161 q 685 67 715 88 q 645 51 669 56 q 595 45 621 46 q 546 49 569 44 q 506 65 522 54 q 475 113 485 79 q 463 193 465 147 q 461 292 460 239 q 465 395 463 344 q 467 490 467 446 q 461 564 467 535 q 442 601 456 593 q 403 589 429 610 q 355 515 371 563 q 334 409 339 467 q 331 289 329 351 q 333 172 332 226 q 331 75 333 117 q 314 15 328 33 q 284 -6 303 0 q 246 -15 265 -12 q 208 -17 233 -17 q 154 -17 182 -18 q 102 -13 126 -17 q 68 -3 78 -10 q 50 24 53 8 q 47 56 47 39 q 52 140 49 99 q 56 225 56 182 q 56 321 56 269 q 54 424 56 372 q 49 526 53 476 q 36 619 44 576 q 32 639 33 629 q 29 658 31 649 q 42 690 28 676 q 81 714 57 704 q 136 728 106 724 q 195 731 167 732 q 247 722 224 729 q 281 701 269 715 q 299 658 296 682 q 306 610 303 633 q 353 658 328 636 q 410 696 379 681 q 497 719 444 713 q 599 717 549 725 q 690 682 650 708 q 740 608 729 656 z "},"n":{"ha":768,"x_min":35,"x_max":743,"o":"m 294 561 q 365 647 321 608 q 460 700 408 685 q 585 700 522 719 q 653 656 626 686 q 696 587 681 626 q 718 501 711 547 q 727 408 725 454 q 730 317 729 361 q 733 238 731 272 q 738 189 735 219 q 742 126 740 158 q 740 65 743 93 q 728 22 738 36 q 700 3 717 7 q 554 -4 604 -25 q 483 67 504 17 q 462 185 463 117 q 463 324 461 254 q 462 453 465 393 q 433 543 458 513 q 410 555 422 557 q 385 543 397 553 q 365 519 374 533 q 353 496 357 506 q 333 416 340 463 q 322 321 325 369 q 318 224 318 272 q 319 140 318 176 q 321 112 319 131 q 324 74 322 93 q 324 37 325 54 q 322 13 324 19 q 288 -22 315 -10 q 226 -40 260 -35 q 158 -44 192 -44 q 107 -40 125 -43 q 75 -31 92 -37 q 47 -12 58 -25 q 36 24 38 -1 q 36 77 35 49 q 41 132 38 106 q 46 174 44 158 q 47 245 47 200 q 46 344 47 290 q 44 454 44 397 q 43 562 43 511 q 44 650 43 613 q 51 704 46 688 q 86 729 56 719 q 153 742 117 739 q 223 743 189 746 q 268 731 257 740 q 287 698 281 719 q 295 651 293 676 q 297 601 297 625 q 294 561 296 576 z "},"o":{"ha":708,"x_min":15,"x_max":692,"o":"m 417 -36 q 326 -33 372 -39 q 236 -11 279 -26 q 104 70 153 18 q 35 189 56 122 q 20 331 15 256 q 49 483 25 407 q 74 551 60 518 q 110 614 89 585 q 181 681 142 658 q 271 717 221 703 q 446 728 371 744 q 572 665 521 711 q 651 551 624 619 q 685 406 679 482 q 677 254 692 331 q 628 115 663 178 q 540 10 593 51 q 417 -36 488 -31 m 374 151 q 396 122 388 136 q 424 96 404 107 q 488 92 460 76 q 535 143 515 107 q 566 229 554 179 q 581 331 578 279 q 581 427 585 382 q 564 499 576 472 q 498 583 532 565 q 433 585 464 601 q 379 523 403 568 q 344 419 356 478 q 338 293 333 360 q 368 165 342 226 l 374 151 z "},"p":{"ha":772,"x_min":25,"x_max":753,"o":"m 325 68 q 330 -1 326 43 q 334 -92 333 -46 q 330 -180 335 -139 q 310 -239 325 -221 q 248 -267 290 -260 q 160 -269 206 -275 q 77 -242 114 -262 q 33 -187 40 -221 q 30 -103 25 -146 q 38 -19 35 -61 q 50 288 49 133 q 40 594 51 442 q 35 646 38 619 q 44 696 32 672 q 91 726 56 717 q 167 736 126 736 q 244 728 207 736 q 296 703 281 719 q 315 667 310 688 q 322 628 319 647 q 368 664 340 647 q 427 691 396 681 q 490 705 458 701 q 550 704 522 708 q 666 644 621 692 q 732 532 711 597 q 751 391 753 467 q 728 247 750 315 q 663 126 706 179 q 558 51 619 72 q 440 37 503 32 q 325 68 378 42 m 393 194 q 452 188 424 175 q 503 232 481 200 q 540 310 525 264 q 556 404 554 357 q 544 493 557 451 q 501 560 532 535 q 441 575 474 582 q 386 543 408 568 q 349 467 363 517 q 334 363 335 417 q 347 263 333 310 q 393 194 360 215 z "},"q":{"ha":761,"x_min":13,"x_max":740,"o":"m 463 675 q 496 720 472 703 q 549 743 519 738 q 612 744 579 749 q 672 727 644 740 q 718 691 700 714 q 738 638 736 668 q 733 560 740 597 q 718 483 725 522 q 680 216 690 350 q 678 -54 669 82 q 682 -99 679 -76 q 683 -143 685 -121 q 663 -195 682 -174 q 617 -229 644 -217 q 556 -247 589 -242 q 491 -249 522 -251 q 433 -238 460 -247 q 394 -215 407 -229 q 368 -155 374 -193 q 365 -74 363 -117 q 374 9 367 -32 q 385 78 381 50 q 285 28 336 42 q 175 38 235 14 q 124 69 147 49 q 82 114 100 90 q 24 260 35 179 q 31 419 13 340 q 90 567 49 499 q 190 676 132 635 q 317 721 247 717 q 463 675 388 725 m 271 194 q 310 157 288 154 q 354 190 332 160 q 396 271 376 221 q 427 375 415 321 q 441 479 439 429 q 429 561 443 529 q 388 602 411 601 q 341 576 364 603 q 297 503 318 550 q 265 401 276 456 q 253 291 253 346 q 271 194 253 236 z "},"r":{"ha":719,"x_min":33,"x_max":706,"o":"m 319 614 q 342 644 331 629 q 365 675 353 660 q 460 746 408 726 q 559 756 511 765 q 644 706 607 746 q 697 600 682 667 q 703 548 701 579 q 703 484 706 517 q 694 422 701 451 q 671 378 686 393 q 637 358 658 364 q 592 350 615 351 q 547 351 569 349 q 508 361 525 354 q 471 392 482 371 q 458 440 460 414 q 458 493 456 465 q 463 545 461 521 q 462 588 465 569 q 443 611 458 606 q 420 606 432 615 q 401 589 408 597 q 355 497 369 550 q 336 383 340 443 q 335 263 332 324 q 339 151 338 203 q 338 59 340 99 q 322 1 336 19 q 286 -21 311 -14 q 232 -31 261 -28 q 175 -33 203 -33 q 131 -31 147 -32 q 103 -27 117 -29 q 76 -18 89 -25 q 50 16 57 -7 q 40 60 43 39 q 35 143 36 94 q 34 247 33 192 q 37 361 35 303 q 42 474 39 419 q 50 576 46 529 q 60 657 54 624 q 66 683 63 671 q 79 707 69 696 q 123 726 93 721 q 185 728 153 732 q 247 715 218 725 q 288 688 275 704 q 306 653 299 672 q 319 614 314 633 z "},"s":{"ha":531,"x_min":11,"x_max":513,"o":"m 303 -28 q 194 -17 250 -32 q 94 31 138 -1 q 70 53 83 39 q 47 85 57 68 q 30 119 36 101 q 26 151 24 136 q 53 183 32 172 q 94 183 75 194 q 111 164 104 176 q 126 135 118 151 q 145 104 135 119 q 175 79 156 89 q 201 70 185 74 q 235 66 218 67 q 267 68 251 65 q 293 79 283 71 q 307 119 313 94 q 288 158 301 143 q 199 235 251 200 q 101 314 146 271 q 34 415 57 357 q 35 557 11 472 q 83 647 50 608 q 168 700 117 685 q 291 718 228 718 q 403 694 354 718 q 480 622 453 671 q 496 496 507 574 q 481 460 493 472 q 449 442 468 446 q 413 444 429 439 q 395 464 399 449 q 392 499 392 479 q 395 538 393 518 q 396 569 397 557 q 368 613 392 599 q 319 626 344 628 q 278 606 294 625 q 272 549 261 588 q 306 485 282 515 q 361 423 331 454 q 422 359 392 392 q 475 290 453 326 q 505 211 497 253 q 497 119 513 169 q 468 62 488 88 q 422 17 449 36 q 365 -15 396 -3 q 303 -28 335 -26 z "},"t":{"ha":642,"x_min":8,"x_max":625,"o":"m 419 440 q 413 370 417 418 q 406 271 408 322 q 408 176 404 219 q 428 118 413 132 q 460 113 439 108 q 503 126 481 117 q 548 147 526 136 q 582 161 569 158 q 608 158 599 165 q 622 137 618 150 q 622 108 625 124 q 614 83 619 93 q 581 51 603 64 q 539 31 558 39 q 414 -8 479 4 q 285 -1 349 -21 q 187 70 219 18 q 142 188 154 122 q 131 324 129 254 q 135 446 132 393 q 89 447 111 446 q 46 460 67 449 q 17 499 26 469 q 9 563 8 529 q 19 626 10 596 q 44 667 28 656 q 92 676 64 681 q 143 669 121 672 q 150 775 144 725 q 174 860 156 825 q 232 915 193 896 q 339 929 271 933 q 372 926 354 928 q 407 921 390 925 q 439 908 424 917 q 463 886 454 900 q 475 839 474 868 q 473 777 476 810 q 464 713 469 744 q 457 661 458 682 q 485 660 467 661 q 522 658 503 660 q 557 653 540 656 q 581 647 574 651 q 613 599 606 633 q 611 530 619 565 q 582 465 603 494 q 531 432 561 436 q 475 432 503 428 q 419 440 447 436 z "},"u":{"ha":743,"x_min":28,"x_max":714,"o":"m 469 103 q 408 40 443 67 q 329 -1 372 13 q 194 -3 260 -24 q 107 50 140 14 q 56 132 74 86 q 33 230 39 178 q 29 332 28 282 q 33 412 31 357 q 42 525 36 467 q 54 633 47 583 q 71 701 61 683 q 117 729 81 718 q 194 740 153 740 q 272 726 236 740 q 318 678 308 711 q 324 595 328 643 q 313 493 321 547 q 294 383 304 439 q 281 279 285 328 q 283 192 276 231 q 314 135 289 154 q 334 127 324 126 q 353 134 344 128 q 370 149 363 140 q 383 167 378 158 q 415 249 404 199 q 429 359 425 300 q 435 478 433 418 q 442 590 438 539 q 455 677 446 640 q 483 724 464 714 q 508 732 494 731 q 533 733 521 733 q 575 732 550 733 q 624 726 600 731 q 669 711 649 721 q 700 685 690 701 q 713 626 713 665 q 710 542 714 586 q 701 456 707 497 q 692 389 694 414 q 683 272 685 331 q 686 154 682 213 q 690 116 688 139 q 693 69 693 93 q 688 25 693 44 q 667 -3 683 6 q 635 -12 656 -8 q 593 -17 615 -15 q 551 -17 571 -18 q 519 -12 531 -17 q 495 6 504 -7 q 481 36 486 19 q 474 71 476 53 q 469 103 471 89 z "},"v":{"ha":668,"x_min":17,"x_max":657,"o":"m 438 -4 q 374 -24 414 -18 q 292 -26 335 -29 q 214 -9 250 -22 q 161 29 178 4 q 138 87 153 43 q 108 192 124 131 q 76 322 92 253 q 47 456 60 392 q 25 570 33 519 q 17 643 17 621 q 32 693 17 674 q 73 722 44 710 q 134 739 101 733 q 198 743 167 744 q 249 733 229 742 q 291 693 275 721 q 316 633 307 665 q 328 566 325 600 q 335 507 332 532 q 346 411 340 458 q 358 317 351 364 q 364 289 360 310 q 374 246 368 268 q 389 207 381 224 q 406 192 397 190 q 426 215 414 193 q 450 269 438 236 q 474 341 463 301 q 496 416 486 381 q 513 480 506 451 q 522 519 519 508 q 533 587 529 553 q 547 654 536 621 q 558 681 551 668 q 576 704 565 694 q 609 715 592 715 q 642 703 626 714 q 656 673 654 693 q 653 630 657 653 q 642 585 649 607 q 632 550 636 563 q 601 433 617 496 q 570 307 586 371 q 536 183 554 243 q 497 72 518 122 q 474 29 488 50 q 438 -4 460 8 z "},"w":{"ha":1064,"x_min":18,"x_max":1046,"o":"m 539 174 q 501 83 524 121 q 448 20 479 44 q 374 -14 417 -4 q 275 -18 332 -24 q 186 10 222 -12 q 128 81 150 32 q 110 147 122 94 q 85 269 99 199 q 60 419 72 339 q 38 569 47 499 q 23 690 28 639 q 22 753 18 740 q 60 774 25 764 q 140 792 96 785 q 223 800 183 799 q 274 794 263 801 q 303 731 292 782 q 322 612 314 681 q 333 465 329 543 q 344 319 338 386 q 359 204 350 251 q 385 149 368 157 q 397 163 392 154 q 407 178 403 171 q 449 317 443 246 q 450 451 454 388 q 440 565 446 514 q 450 643 435 615 q 471 668 458 658 q 499 683 483 678 q 531 692 514 689 q 563 696 547 694 q 589 698 571 697 q 626 699 607 699 q 661 697 644 699 q 685 692 678 696 q 714 647 703 681 q 733 566 725 613 q 747 465 742 519 q 760 360 753 411 q 776 267 767 310 q 803 201 786 225 l 814 188 q 847 233 833 192 q 869 338 860 275 q 885 472 878 400 q 901 609 893 544 q 918 721 908 674 q 942 781 928 768 q 977 795 954 792 q 1015 792 1000 799 q 1038 769 1033 783 q 1044 738 1043 756 q 1041 661 1046 700 q 1028 583 1036 622 q 1010 506 1019 544 q 996 431 1001 467 q 975 267 982 349 q 946 106 968 185 q 928 60 939 82 q 899 24 918 39 q 853 2 878 8 q 803 -6 828 -4 q 760 -6 788 -7 q 705 -3 733 -6 q 651 3 676 -1 q 613 17 625 8 q 588 45 599 25 q 567 88 576 65 q 550 135 557 111 q 539 174 543 158 z "},"x":{"ha":635,"x_min":10,"x_max":618,"o":"m 293 217 q 274 188 288 208 q 242 142 260 168 q 206 90 225 117 q 168 40 186 63 q 135 1 150 17 q 114 -15 121 -14 q 80 -11 97 -18 q 49 4 63 -4 q 26 24 36 11 q 15 51 15 36 q 42 103 15 74 q 101 165 68 132 q 164 231 135 197 q 197 296 193 264 q 178 358 200 318 q 125 442 156 399 q 65 527 94 486 q 24 593 35 568 q 30 652 10 622 q 84 705 50 682 q 155 739 118 728 q 211 743 192 750 q 253 707 231 736 q 296 642 275 678 q 335 572 317 607 q 367 518 354 538 q 388 549 374 528 q 418 596 401 571 q 455 646 435 621 q 494 690 475 671 q 532 719 514 710 q 564 721 550 728 q 594 691 581 713 q 606 650 608 669 q 581 605 604 638 q 528 535 558 572 q 471 465 499 499 q 431 415 443 431 q 476 353 444 394 q 538 267 507 311 q 593 181 569 222 q 618 118 617 139 q 603 71 618 90 q 578 46 594 60 q 543 19 563 32 q 504 -2 524 7 q 472 -12 485 -11 q 422 15 449 -14 q 371 81 396 43 q 326 158 346 119 q 293 217 306 197 z "},"y":{"ha":732,"x_min":28,"x_max":696,"o":"m 418 119 q 344 76 385 92 q 261 58 304 61 q 141 86 194 56 q 60 176 88 117 q 34 260 40 218 q 28 345 28 303 q 34 431 29 388 q 42 518 39 475 q 45 571 43 536 q 51 641 47 606 q 64 707 56 676 q 86 749 72 738 q 122 762 99 758 q 170 765 144 765 q 221 761 196 764 q 261 756 246 758 q 290 748 276 753 q 315 731 304 743 q 324 671 326 715 q 315 567 322 626 q 298 444 307 508 q 288 326 289 379 q 297 236 286 272 q 340 200 308 200 q 394 236 379 199 q 414 331 410 274 q 415 455 418 388 q 415 581 413 522 q 431 683 418 640 q 479 732 444 725 q 513 735 488 733 q 569 738 539 738 q 624 739 599 739 q 657 736 650 739 q 679 716 671 731 q 692 683 688 701 q 696 647 696 665 q 696 615 696 628 q 689 524 693 569 q 683 432 685 478 q 683 333 682 390 q 686 212 685 276 q 688 80 688 147 q 683 -49 688 13 q 669 -163 679 -111 q 639 -249 658 -215 q 560 -336 607 -306 q 463 -374 514 -367 q 363 -369 413 -382 q 277 -326 314 -356 q 222 -250 240 -296 q 214 -147 203 -204 q 242 -76 221 -110 q 292 -18 264 -43 q 349 24 319 6 q 410 63 379 43 l 418 119 m 421 -28 q 369 -66 396 -43 q 325 -117 343 -89 q 304 -176 307 -144 q 324 -239 301 -207 q 335 -251 328 -244 q 350 -265 342 -258 q 367 -274 358 -271 q 382 -275 375 -278 q 394 -261 389 -272 q 405 -237 400 -250 q 413 -210 410 -224 q 417 -190 415 -197 q 421 -109 422 -150 q 421 -28 419 -68 z "},"z":{"ha":674,"x_min":11,"x_max":661,"o":"m 346 122 q 405 123 375 121 q 465 127 435 125 q 524 130 494 129 q 582 126 554 131 q 631 90 619 122 q 622 29 642 58 q 588 6 611 14 q 538 -3 565 -1 q 483 -5 510 -6 q 440 -4 457 -4 q 389 -6 421 -4 q 319 -8 357 -7 q 240 -10 281 -10 q 164 -10 200 -11 q 99 -3 128 -8 q 56 11 69 1 q 34 33 43 19 q 21 61 25 46 q 18 131 11 94 q 49 196 25 168 q 93 242 61 210 q 165 314 125 274 q 246 399 204 354 q 320 483 288 443 q 370 556 353 524 q 379 606 388 589 q 359 622 374 617 q 327 631 344 628 q 293 633 310 633 q 265 633 276 633 q 174 628 225 632 q 83 632 124 624 q 51 649 63 636 q 35 679 39 663 q 38 713 32 696 q 61 742 44 729 q 106 756 74 751 q 174 761 138 760 q 246 762 211 763 q 299 761 281 761 q 365 760 322 761 q 455 756 408 760 q 542 747 501 753 q 600 729 582 740 q 655 649 649 699 q 640 540 661 599 q 578 417 619 481 q 493 295 538 353 q 408 192 449 238 q 346 122 367 146 z "},"{":{"ha":531,"x_min":26,"x_max":564,"o":"m 251 472 q 290 444 269 457 q 326 414 310 431 q 353 351 347 392 q 360 265 360 311 q 357 172 360 218 q 358 96 354 126 q 375 35 364 50 q 403 21 386 19 q 441 31 419 22 q 490 42 463 39 q 527 25 514 44 q 538 -17 540 6 q 504 -62 535 -46 q 434 -84 474 -78 q 355 -89 394 -90 q 294 -83 315 -87 q 186 -36 235 -69 q 135 22 151 -11 q 115 91 119 54 q 112 167 110 128 q 115 246 114 207 q 110 322 115 285 q 89 392 106 360 q 70 415 83 403 q 47 440 57 428 q 31 466 36 453 q 38 492 26 479 q 71 525 53 511 q 101 561 89 539 q 117 633 117 588 q 117 731 118 678 q 118 842 115 785 q 139 949 121 899 q 197 1035 157 999 q 308 1086 236 1072 q 366 1092 339 1092 q 419 1091 393 1093 q 471 1085 444 1089 q 526 1075 497 1081 q 550 1061 542 1072 q 561 1035 558 1050 q 560 1006 564 1021 q 549 982 557 992 q 506 970 533 965 q 451 981 479 975 q 399 979 424 986 q 365 932 375 972 q 358 860 357 897 q 362 783 358 822 q 368 704 365 743 q 367 629 371 665 q 348 561 363 593 q 301 504 333 529 q 277 488 290 494 q 251 472 264 481 z "},"}":{"ha":531,"x_min":-33,"x_max":504,"o":"m 281 472 q 200 536 225 503 q 167 608 175 569 q 164 690 160 646 q 172 789 168 735 q 174 831 174 804 q 173 885 175 857 q 165 936 171 913 q 146 971 158 960 q 106 983 129 985 q 60 976 83 981 q 16 969 36 971 q -17 982 -4 968 q -33 1024 -32 999 q -17 1064 -33 1049 q 6 1074 -6 1074 q 29 1078 17 1075 q 140 1092 89 1088 q 253 1079 192 1097 q 351 1021 317 1060 q 399 933 385 982 q 415 828 414 883 q 414 722 415 774 q 414 627 413 671 q 432 557 415 583 q 451 535 438 547 q 476 511 464 524 q 497 485 489 499 q 501 461 504 472 q 490 445 499 453 q 472 427 482 438 q 450 403 461 417 q 433 371 439 390 q 419 285 419 329 q 419 199 418 242 q 418 115 419 156 q 403 40 417 75 q 358 -25 389 4 q 271 -74 328 -54 q 165 -91 219 -92 q 60 -75 111 -90 q 19 -57 40 -68 q -6 -24 -1 -46 q -1 15 -10 -6 q 26 40 7 35 q 60 40 43 44 q 92 28 76 35 q 122 19 107 22 q 147 25 136 17 q 166 56 158 33 q 176 126 174 79 q 175 195 178 156 q 172 275 172 235 q 176 352 171 315 q 201 410 182 389 q 240 442 218 429 q 281 472 261 456 z "},"~":{"ha":785,"x_min":21,"x_max":764,"o":"m 554 264 q 483 256 517 251 q 419 276 449 261 q 362 310 389 290 q 310 349 335 331 q 265 382 286 368 q 224 397 243 396 q 191 385 206 399 q 163 353 176 372 q 137 314 150 333 q 109 283 124 294 q 77 272 94 271 q 38 297 60 274 q 25 340 21 314 q 47 396 29 367 q 93 453 65 425 q 152 505 121 482 q 215 542 183 528 q 271 554 246 556 q 344 531 304 551 q 421 487 383 511 q 490 443 458 463 q 542 424 522 424 q 583 440 563 424 q 625 478 604 457 q 665 519 646 500 q 701 542 685 538 q 736 537 721 547 q 758 508 751 526 q 760 477 764 493 q 749 446 757 461 q 730 417 740 431 q 710 393 719 404 q 640 317 678 356 q 554 264 603 279 z "}," ":{"ha":417,"x_min":0,"x_max":0,"o":""},"¢":{"ha":683,"x_min":28,"x_max":654,"o":"m 424 96 q 429 52 426 75 q 424 8 432 29 q 401 -13 417 -7 q 367 -17 385 -19 q 333 -6 349 -15 q 314 19 318 3 q 310 57 308 39 q 313 94 313 75 q 145 170 208 111 q 55 309 82 229 q 34 481 28 389 q 75 653 40 572 q 169 796 110 735 q 307 876 228 857 q 303 905 304 888 q 302 939 301 922 q 308 971 303 956 q 325 993 314 986 q 352 1003 336 1000 q 383 1004 368 1007 q 410 992 399 1001 q 422 967 421 983 q 422 922 425 944 q 418 876 418 899 q 563 796 514 850 q 632 646 611 742 q 636 620 635 633 q 631 594 638 607 q 613 577 625 583 q 586 570 600 571 q 559 574 572 569 q 538 588 546 578 q 519 633 526 601 q 501 692 513 664 q 472 735 490 719 q 418 733 453 750 q 379 687 394 721 q 356 611 364 653 q 344 529 347 569 q 340 465 340 489 q 341 363 339 414 q 360 276 343 313 q 416 226 378 240 q 525 233 454 211 q 560 246 543 239 q 594 257 576 253 q 619 256 607 260 q 640 243 632 251 q 651 222 649 235 q 647 197 654 210 q 608 160 636 178 q 547 130 581 143 q 478 108 513 117 q 424 96 444 99 z "},"£":{"ha":839,"x_min":38,"x_max":815,"o":"m 442 236 q 551 232 497 231 q 661 243 606 233 q 714 251 685 247 q 767 247 743 256 q 802 203 789 239 q 815 124 815 167 q 795 45 814 82 q 735 -1 776 8 q 624 -10 679 -14 q 512 4 568 -6 q 399 24 456 14 q 289 31 343 33 q 220 19 253 29 q 153 1 188 8 q 117 1 136 -1 q 85 15 99 3 q 67 40 75 24 q 56 76 60 57 q 50 113 51 94 q 51 144 49 132 q 74 183 57 172 q 115 199 92 194 q 162 208 138 204 q 203 226 186 213 q 227 269 221 240 q 222 351 233 297 q 185 347 208 350 q 139 342 163 343 q 94 342 115 340 q 63 356 72 344 q 44 394 51 365 q 38 453 38 424 q 46 508 38 483 q 76 535 54 532 q 119 537 99 538 q 163 538 140 536 q 133 708 131 632 q 165 841 136 785 q 240 935 193 897 q 342 990 288 972 q 454 1004 397 1007 q 560 978 511 1001 q 642 909 608 954 q 683 799 675 864 q 689 760 685 783 q 692 716 693 738 q 683 678 692 694 q 650 658 674 661 q 620 662 638 656 q 596 679 603 668 q 585 719 586 696 q 584 766 585 742 q 576 814 583 790 q 549 857 569 838 q 510 879 532 872 q 467 885 489 886 q 426 874 446 883 q 394 844 407 864 q 372 777 374 815 q 380 699 371 739 q 403 622 389 660 q 428 553 417 583 q 487 558 447 554 q 569 561 526 561 q 649 557 613 561 q 701 540 686 553 q 719 507 717 528 q 721 468 721 486 q 719 440 721 456 q 715 408 718 424 q 704 378 711 392 q 686 358 697 365 q 643 347 672 349 q 581 348 614 346 q 517 353 549 350 q 467 357 486 357 q 461 295 465 326 q 442 236 457 264 z "},"¤":{"ha":583,"x_min":36,"x_max":554,"o":"m 199 208 q 190 190 196 201 q 176 168 183 179 q 163 147 169 157 q 150 135 156 138 q 122 135 140 131 q 88 150 104 139 q 62 176 71 161 q 61 207 53 190 q 83 239 71 225 q 106 271 96 253 q 77 340 86 299 q 68 426 68 382 q 76 513 68 471 q 99 585 83 556 q 83 603 93 592 q 63 628 74 615 q 45 653 53 642 q 38 674 38 665 q 47 698 36 685 q 72 722 57 711 q 102 738 86 733 q 128 738 118 743 q 140 726 133 735 q 153 706 147 717 q 166 683 160 694 q 176 667 172 672 q 295 697 231 699 q 410 654 360 694 q 442 698 429 678 q 469 726 456 718 q 499 726 482 735 q 543 682 515 717 q 551 670 547 676 q 553 657 554 664 q 542 639 553 654 q 517 605 531 624 q 490 569 503 586 q 474 546 478 551 q 485 419 489 485 q 450 297 482 353 q 467 275 456 289 q 489 247 478 261 q 508 219 500 232 q 517 199 517 206 q 513 187 517 192 q 503 179 508 182 q 451 150 469 156 q 422 152 433 144 q 402 178 411 160 q 376 224 393 197 q 290 201 336 204 q 199 208 243 197 m 325 300 q 347 303 336 297 q 365 317 358 310 q 397 367 386 336 q 410 432 408 399 q 405 498 411 465 q 387 553 399 531 q 358 587 375 576 q 319 588 340 597 q 290 556 303 579 q 272 502 278 532 q 265 439 265 472 q 270 376 264 406 q 290 326 276 347 q 325 300 304 306 z "},"¥":{"ha":749,"x_min":40,"x_max":711,"o":"m 524 199 q 531 130 526 167 q 529 62 535 93 q 504 8 524 31 q 439 -17 485 -14 q 395 -18 424 -18 q 336 -16 367 -18 q 279 -9 306 -14 q 242 4 253 -4 q 222 40 226 15 q 217 94 217 65 q 219 152 217 124 q 222 197 222 181 q 171 196 204 197 q 107 200 138 194 q 58 222 76 206 q 51 274 40 238 q 60 288 54 282 q 74 297 67 293 q 103 303 82 301 q 148 306 124 306 q 194 306 172 306 q 228 306 217 306 q 228 338 228 321 q 229 369 228 354 q 192 368 217 369 q 142 368 168 367 q 93 373 115 369 q 61 385 71 376 q 44 420 47 397 q 53 458 40 443 q 82 472 61 468 q 128 478 103 476 q 176 478 153 479 q 213 478 200 478 q 183 524 197 501 q 157 572 168 547 q 138 615 151 585 q 110 683 125 644 q 81 763 96 721 q 57 842 67 804 q 44 907 47 879 q 51 946 42 935 q 89 969 61 958 q 148 988 117 981 q 208 999 179 996 q 251 997 238 1001 q 270 985 263 993 q 283 965 278 976 q 315 888 299 935 q 346 791 331 842 q 376 690 361 740 q 407 600 392 639 q 424 640 410 608 q 456 716 438 672 q 494 809 474 760 q 532 901 514 858 q 563 971 550 943 q 578 1001 575 999 q 608 1007 589 1011 q 647 992 628 1003 q 681 965 667 981 q 696 936 696 950 q 684 893 696 925 q 653 818 672 861 q 613 726 635 775 q 569 631 590 676 q 532 547 549 585 q 508 490 515 510 l 510 476 q 540 477 513 476 q 599 478 567 478 q 660 476 632 478 q 694 469 689 474 q 702 456 701 464 q 703 442 703 449 q 697 400 704 414 q 677 379 690 386 q 645 372 664 372 q 604 371 626 371 l 515 371 q 517 338 517 354 q 518 306 517 322 q 548 306 521 306 q 608 307 575 307 q 669 304 640 307 q 703 296 697 301 q 708 283 707 290 q 708 269 708 276 q 710 248 710 258 q 706 226 711 238 q 674 206 699 213 q 621 199 650 200 q 565 198 592 197 q 524 199 538 199 z "},"­":{"ha":0,"x_min":0,"x_max":0,"o":""},"±":{"ha":665,"x_min":31,"x_max":633,"o":"m 418 461 q 419 421 418 451 q 421 357 421 390 q 417 295 421 324 q 406 261 414 267 q 383 254 397 254 q 358 254 369 254 q 283 269 306 253 q 255 313 261 285 q 252 380 249 342 q 256 463 256 418 q 203 459 235 463 q 139 457 171 456 q 82 469 107 458 q 49 504 57 479 q 47 588 31 561 q 99 622 64 614 q 177 628 133 631 q 257 624 221 625 q 256 666 257 638 q 254 725 254 694 q 257 781 254 756 q 267 818 260 807 q 290 834 275 829 q 318 842 304 839 q 361 844 338 844 q 400 829 385 844 q 415 792 411 819 q 420 731 419 764 q 419 669 421 699 q 418 624 418 639 l 590 624 q 616 619 607 624 q 628 607 625 615 q 631 588 631 599 q 632 564 632 576 q 633 528 632 546 q 626 494 633 511 q 592 469 619 476 q 532 460 565 463 q 467 460 499 458 q 418 461 435 461 m 244 -14 q 202 -16 229 -14 q 146 -18 175 -18 q 92 -15 117 -18 q 56 -3 67 -11 q 37 28 43 7 q 31 73 31 50 q 39 115 31 96 q 65 140 47 133 q 108 146 78 144 q 174 148 139 147 q 241 148 208 149 q 290 147 274 147 l 579 147 q 596 146 588 147 q 611 139 604 144 q 619 116 617 133 q 622 78 622 99 q 619 38 622 57 q 613 13 617 19 q 551 -10 601 -4 q 438 -17 500 -17 q 321 -16 376 -18 q 244 -14 265 -14 z "},"×":{"ha":557,"x_min":31,"x_max":524,"o":"m 271 275 q 242 246 263 267 q 197 203 221 225 q 153 163 174 181 q 125 144 133 144 q 101 155 111 143 q 81 175 90 167 q 56 199 68 186 q 38 228 44 211 q 44 269 31 246 q 80 317 58 293 q 124 360 101 340 q 160 392 147 381 q 128 421 149 403 q 88 460 108 439 q 53 501 68 481 q 36 536 38 521 q 46 571 35 551 q 74 606 57 590 q 110 630 90 622 q 146 629 129 638 q 174 608 156 625 q 211 572 192 592 q 249 533 231 551 q 276 504 267 514 q 315 547 293 521 q 361 594 336 572 q 413 625 386 615 q 464 619 439 635 q 518 558 514 589 q 502 498 522 528 q 448 440 482 468 q 388 388 414 413 q 418 358 396 379 q 464 312 440 336 q 506 266 488 288 q 524 236 524 244 q 516 218 524 229 q 497 196 508 207 q 475 174 486 185 q 458 160 464 164 q 408 153 435 143 q 356 185 382 163 q 308 233 331 207 q 271 275 286 260 z "},"÷":{"ha":636,"x_min":22,"x_max":614,"o":"m 365 522 q 319 515 344 513 q 275 530 294 518 q 247 562 256 542 q 249 608 238 582 q 272 638 257 626 q 306 653 288 649 q 344 654 325 657 q 378 640 363 651 q 399 613 393 629 q 403 578 406 596 q 392 544 401 560 q 365 522 382 529 m 236 306 q 194 303 221 306 q 138 301 167 301 q 83 305 108 301 q 47 317 58 308 q 28 348 35 326 q 22 392 22 369 q 31 435 22 415 q 57 461 39 454 q 99 467 69 465 q 165 468 129 468 q 233 467 200 468 q 282 467 265 467 l 571 467 q 588 465 579 467 q 603 458 596 464 q 611 435 608 453 q 614 397 614 418 q 611 358 614 376 q 604 332 608 339 q 572 315 597 321 q 509 306 546 308 q 431 303 472 303 q 350 303 389 303 q 281 305 311 304 q 236 306 250 306 m 394 149 q 347 122 376 125 q 292 131 318 119 q 253 165 267 142 q 256 219 240 189 q 307 260 274 254 q 369 253 340 267 q 409 212 397 240 q 394 149 421 183 z "},"‘":{"ha":292,"x_min":33,"x_max":260,"o":"m 226 682 q 187 660 211 664 q 142 658 163 657 q 92 674 111 658 q 60 729 74 688 q 40 819 46 771 q 35 913 33 868 q 53 976 38 957 q 81 997 63 989 q 122 1006 100 1004 q 165 1008 144 1008 q 200 1003 186 1007 q 231 987 217 999 q 251 957 246 975 q 258 899 257 938 q 258 817 260 860 q 248 735 256 774 q 226 682 240 697 z "},"’":{"ha":292,"x_min":33,"x_max":260,"o":"m 226 682 q 187 660 211 664 q 142 658 163 657 q 92 674 111 658 q 60 729 74 688 q 40 819 46 771 q 35 913 33 868 q 53 976 38 957 q 81 997 63 989 q 122 1006 100 1004 q 165 1008 144 1008 q 200 1003 186 1007 q 231 987 217 999 q 251 957 246 975 q 258 899 257 938 q 258 817 260 860 q 248 735 256 774 q 226 682 240 697 z "},"“":{"ha":614,"x_min":32,"x_max":582,"o":"m 226 679 q 187 658 213 663 q 142 656 161 654 q 115 660 128 657 q 92 672 103 664 q 60 728 74 686 q 39 818 46 769 q 35 911 32 867 q 53 975 38 956 q 81 994 63 988 q 122 1003 100 1001 q 164 1004 143 1006 q 200 1000 185 1003 q 232 984 218 996 q 251 954 246 972 q 258 897 257 936 q 258 814 260 857 q 248 733 256 771 q 226 679 240 694 m 549 672 q 509 652 533 656 q 464 650 485 649 q 414 665 433 650 q 382 722 396 679 q 362 812 368 764 q 358 904 356 860 q 375 968 360 949 q 403 988 385 981 q 444 998 422 996 q 486 999 465 1000 q 522 994 507 999 q 553 978 539 990 q 574 949 568 967 q 581 891 579 931 q 580 808 582 851 q 570 725 578 764 q 549 672 563 686 z "},"”":{"ha":614,"x_min":32,"x_max":582,"o":"m 226 679 q 187 658 213 663 q 142 656 161 654 q 115 660 128 657 q 92 672 103 664 q 60 728 74 686 q 39 818 46 769 q 35 911 32 867 q 53 975 38 956 q 81 994 63 988 q 122 1003 100 1001 q 164 1004 143 1006 q 200 1000 185 1003 q 232 984 218 996 q 251 954 246 972 q 258 897 257 936 q 258 814 260 857 q 248 733 256 771 q 226 679 240 694 m 549 672 q 509 652 533 656 q 464 650 485 649 q 414 665 433 650 q 382 722 396 679 q 362 812 368 764 q 358 904 356 860 q 375 968 360 949 q 403 988 385 981 q 444 998 422 996 q 486 999 465 1000 q 522 994 507 999 q 553 978 539 990 q 574 949 568 967 q 581 891 579 931 q 580 808 582 851 q 570 725 578 764 q 549 672 563 686 z "},"€":{"ha":835,"x_min":19,"x_max":797,"o":"m 417 322 q 425 256 419 294 q 443 181 431 217 q 478 119 456 146 q 538 92 500 93 q 595 103 568 90 q 647 136 622 117 q 692 176 671 156 q 730 208 713 196 q 760 217 747 219 q 783 192 774 215 q 785 162 789 178 q 774 133 781 146 q 723 63 754 94 q 654 11 692 32 q 568 -22 614 -11 q 476 -33 522 -33 q 384 -19 429 -32 q 300 17 339 -7 q 229 75 260 42 q 177 148 199 108 q 142 232 156 188 q 121 321 128 276 q 55 337 79 321 q 27 372 31 353 q 43 408 24 392 q 110 428 63 425 l 110 493 q 44 510 68 493 q 20 547 21 528 q 42 583 19 567 q 117 600 65 600 q 146 738 124 669 q 207 863 168 807 q 303 958 246 919 q 436 1007 360 997 q 561 1008 500 1015 q 672 976 622 1001 q 755 902 722 950 q 793 782 788 854 q 796 744 794 768 q 793 708 797 719 q 775 687 789 694 q 744 677 761 679 q 713 679 728 675 q 690 696 697 683 q 682 731 683 708 q 678 778 681 753 q 668 828 676 804 q 639 867 660 851 q 610 879 628 875 q 574 885 593 883 q 538 883 556 886 q 508 872 521 881 q 469 822 485 857 q 443 747 453 788 q 428 667 433 707 q 422 600 424 626 l 636 600 q 673 588 661 600 q 685 558 685 575 q 680 526 686 542 q 664 506 674 511 q 617 496 650 499 q 544 492 583 493 q 469 493 506 492 q 415 494 433 494 q 414 462 414 478 q 414 429 414 446 l 642 429 q 664 427 649 429 q 683 419 679 425 q 689 405 688 415 q 690 383 690 394 q 687 360 689 371 q 682 344 685 350 q 638 327 674 332 q 558 321 601 322 q 474 321 514 319 q 417 322 433 322 z "},"™":{"ha":913,"x_min":19,"x_max":876,"o":"m 243 949 q 244 905 243 936 q 245 834 244 874 q 246 751 246 794 q 245 672 246 708 q 242 608 244 635 q 235 576 239 582 q 213 563 228 568 q 193 559 206 560 q 167 558 181 558 q 143 561 154 558 q 126 568 132 564 q 118 600 121 574 q 115 665 115 626 q 115 747 114 703 q 117 833 115 792 q 119 905 118 874 q 121 949 121 936 q 102 948 114 949 q 78 947 90 947 q 53 947 65 947 q 38 950 42 947 q 24 961 29 953 q 19 979 19 969 q 23 997 19 989 q 35 1010 26 1006 q 58 1010 35 1010 q 115 1010 81 1010 q 189 1010 149 1010 q 263 1010 229 1010 q 320 1009 297 1010 q 344 1008 343 1008 q 355 967 363 981 q 327 950 347 954 q 282 947 307 946 q 243 949 257 949 m 493 858 q 494 788 494 822 q 497 718 494 754 q 500 689 497 708 q 505 649 503 669 q 506 610 507 628 q 500 585 506 592 q 472 573 493 576 q 430 571 451 569 q 392 576 408 572 q 378 586 375 581 q 381 603 381 594 q 383 621 382 613 q 383 699 385 650 q 380 799 382 747 q 377 893 378 850 q 381 953 376 936 q 401 979 386 974 q 435 986 415 985 q 462 986 446 986 q 493 983 478 986 q 522 976 508 981 q 543 961 536 971 q 560 915 553 947 q 574 847 567 883 q 593 778 582 811 q 624 731 604 746 q 636 751 629 733 q 651 795 643 769 q 667 850 658 821 q 685 906 676 879 q 703 951 694 932 q 721 976 713 971 q 735 981 725 979 q 757 982 746 982 q 779 982 768 982 q 796 982 790 982 q 810 982 801 982 q 829 981 819 982 q 848 979 839 981 q 861 975 857 978 q 872 959 868 969 q 876 936 875 949 q 876 912 876 924 q 874 892 875 900 q 863 763 867 828 q 867 632 860 697 q 869 616 868 625 q 868 600 871 607 q 852 587 865 592 q 822 580 839 582 q 790 578 806 578 q 767 579 775 579 q 743 592 750 581 q 735 620 736 604 q 735 653 733 636 q 738 681 736 669 q 741 758 740 719 q 742 836 742 797 q 722 797 731 819 q 704 753 713 775 q 688 713 696 732 q 669 681 679 693 q 629 658 657 664 q 582 660 601 653 q 553 691 567 665 q 528 749 539 717 q 508 811 517 781 q 493 858 499 842 z "},"−":{"ha":638,"x_min":24,"x_max":615,"o":"m 238 306 q 195 303 222 306 q 139 301 168 301 q 85 305 110 301 q 49 317 60 308 q 30 348 36 326 q 24 392 24 369 q 32 435 24 415 q 58 461 40 454 q 101 467 71 465 q 166 468 131 468 q 234 467 201 468 q 283 467 267 467 l 572 467 q 589 465 581 467 q 604 458 597 464 q 613 435 610 453 q 615 397 615 418 q 613 358 615 376 q 606 332 610 339 q 573 315 599 321 q 510 306 547 308 q 432 303 474 303 q 351 303 390 303 q 282 305 313 304 q 238 306 251 306 z "},"|":{"ha":306,"x_min":54,"x_max":250,"o":"m 151 -129 q 111 -127 132 -129 q 75 -111 90 -125 q 58 -74 63 -100 q 55 -19 54 -49 q 58 39 56 11 q 63 83 61 67 q 71 340 69 213 q 72 597 72 468 q 73 672 72 629 q 74 758 74 714 q 72 842 74 801 q 65 913 69 883 q 60 944 63 925 q 58 985 58 964 q 61 1024 58 1006 q 72 1051 64 1042 q 101 1067 81 1061 q 146 1074 122 1074 q 190 1070 169 1075 q 219 1054 211 1065 q 235 1011 232 1038 q 239 905 242 960 q 236 797 236 850 q 238 484 238 640 q 243 171 238 328 q 245 113 243 151 q 249 34 247 75 q 249 -42 250 -7 q 243 -92 249 -78 q 205 -125 232 -121 q 151 -129 178 -129 z "},"`":{"ha":292,"x_min":21,"x_max":271,"o":"m 244 782 q 224 767 236 774 q 200 761 213 760 q 169 781 193 761 q 116 824 144 800 q 64 869 88 847 q 35 897 40 890 q 24 917 28 906 q 24 940 21 929 q 56 986 31 963 q 104 1015 82 1010 q 161 998 131 1021 q 217 941 192 975 q 256 869 242 907 q 265 811 271 832 q 244 782 260 796 z "}}}
